<?xml version="1.0" standalone="no"?>
<!DOCTYPE svg PUBLIC "-//W3C//DTD SVG 20010904//EN"
 "http://www.w3.org/TR/2001/REC-SVG-20010904/DTD/svg10.dtd">
<svg version="1.0" xmlns="http://www.w3.org/2000/svg"
 width="512.000000pt" height="512.000000pt" viewBox="0 0 512.000000 512.000000"
 preserveAspectRatio="xMidYMid meet">

<g transform="translate(0.000000,512.000000) scale(0.100000,-0.100000)"
fill="#FFFFFF" stroke="none">
<path d="M460 2535 l0 -2125 2125 0 2125 0 0 2125 0 2125 -2125 0 -2125 0 0
-2125z m2220 494 l0 -352 348 4 347 4 3 -116 3 -116 -107 -6 c-59 -4 -217 -7
-351 -7 l-243 0 0 -355 0 -355 -120 0 -120 0 0 351 0 351 -350 -7 -350 -8 0
120 0 120 167 6 c91 4 249 7 350 7 l183 0 0 355 0 355 120 0 120 0 0 -351z"/>
</g>
</svg>
