<svg version="1.1" id="Layer_1" xmlns="http://www.w3.org/2000/svg" xmlns:xlink="http://www.w3.org/1999/xlink" x="0px" y="0px"
	 width="100%" viewBox="0 0 120 120" enable-background="new 0 0 120 120" xml:space="preserve">
<path fill="#969CE3" opacity="1.000000" stroke="none" 
	d="
M121.000000,43.000000 
	C121.000000,44.388889 121.000000,45.777779 120.636971,47.597054 
	C116.515350,52.018040 112.756760,56.008636 108.748634,59.999374 
	C108.499107,59.999519 108.000000,60.000153 107.660088,60.058552 
	C101.712227,65.484024 96.035706,70.782135 90.531815,76.253876 
	C88.480087,78.293617 86.831696,80.739067 84.697357,83.070129 
	C83.930115,83.760475 83.464905,84.380203 82.697701,85.070496 
	C81.930672,85.760689 81.465645,86.380318 80.915169,87.318756 
	C79.219810,89.091812 77.609909,90.546059 75.660080,92.058670 
	C66.848099,100.323921 58.326015,108.480713 49.979176,116.813057 
	C49.117874,117.672867 49.301323,119.579239 49.000000,121.000000 
	C47.285839,121.000000 45.571674,121.000000 43.442543,120.636978 
	C44.953300,117.888214 46.749203,115.382141 48.828556,113.138794 
	C55.678455,105.748695 62.655178,98.476166 69.509300,91.089920 
	C70.252808,90.288689 70.515297,89.041092 71.351570,87.944298 
	C73.008224,87.200485 74.606415,86.792084 75.573051,85.780304 
	C82.123032,78.924400 88.539604,71.941032 95.322792,64.910622 
	C96.098221,63.881989 96.550163,62.941605 97.341110,61.942802 
	C101.327156,58.598255 104.844826,55.152103 108.656906,52.070118 
	C112.623131,48.863518 116.873741,46.008663 121.000000,43.000000 
z"/>
<path fill="#613AED" opacity="1.000000" stroke="none" 
	d="
M1.000000,59.000000 
	C1.000000,56.958332 1.000000,54.916668 1.342098,52.378067 
	C2.268560,51.582535 2.972649,51.405876 3.419480,50.967186 
	C11.147132,43.380398 18.829288,35.747288 26.551893,28.155333 
	C30.414774,24.357803 34.509735,20.781374 38.192612,16.819452 
	C42.955631,11.695548 47.411743,6.286355 52.000000,0.999999 
	C54.370556,1.000000 56.741116,1.000000 59.675262,1.253007 
	C60.493267,2.004291 60.747677,2.502567 60.662178,3.058907 
	C59.133148,3.993103 57.813046,4.737166 56.775482,5.766128 
	C47.984962,14.483805 39.250984,23.258457 30.489607,32.005566 
	C25.210726,37.275848 20.055943,42.682087 14.578633,47.738251 
	C10.263886,51.721245 5.541389,55.262524 1.000000,59.000000 
z"/>
<path fill="#7F73E5" opacity="1.000000" stroke="none" 
	d="
M2.999997,121.000000 
	C2.333330,120.560112 1.155729,120.183807 1.091651,119.668930 
	C0.859172,117.800896 1.000000,115.886421 1.338888,113.436615 
	C2.132059,112.684128 2.696494,112.595276 3.024776,112.268898 
	C17.538893,97.839111 32.056129,83.412148 46.472588,68.885201 
	C47.406109,67.944519 47.544601,66.214867 48.348015,65.014565 
	C50.079517,66.827171 51.515930,68.477440 52.983635,70.340363 
	C53.014923,70.553032 53.104435,70.973526 52.787415,71.048676 
	C51.647861,72.083115 50.825325,73.042419 49.659019,74.060883 
	C47.892750,74.953087 46.227028,75.538757 45.087269,76.659378 
	C37.791740,83.832397 30.616343,91.127518 23.391724,98.372780 
	C20.021034,101.753090 16.470457,104.969841 13.287940,108.517754 
	C9.690768,112.527931 6.415340,116.826714 2.999997,121.000000 
z"/>
<path fill="#9CA7E1" opacity="1.000000" stroke="none" 
	d="
M121.000000,54.000000 
	C121.000000,55.066570 121.000000,56.133137 120.661194,57.657986 
	C117.881302,60.743771 115.440208,63.371273 112.660339,66.057251 
	C110.905411,67.219482 109.339149,68.176918 108.097427,69.450722 
	C99.925987,77.833305 91.890045,86.348610 83.677879,94.690643 
	C77.893303,100.566696 71.900261,106.237534 65.711494,112.164726 
	C62.948456,115.219635 60.474232,118.109825 58.000000,121.000000 
	C56.933430,121.000000 55.866863,121.000000 54.400131,120.625000 
	C53.999874,119.500000 53.999783,118.750000 54.086739,117.678848 
	C55.782539,115.572006 57.391296,113.786308 59.364834,111.985550 
	C65.125443,107.026657 70.568565,102.133080 75.897011,97.117661 
	C78.534851,94.634781 81.070831,92.022774 83.450066,89.292450 
	C85.452644,86.994362 87.161812,84.440590 89.139893,81.746674 
	C89.852623,80.995773 90.426315,80.498192 91.364792,79.985565 
	C99.300697,74.421028 106.602783,68.611916 111.249184,59.778862 
	C113.331741,57.705097 115.166023,55.852932 117.400269,54.000610 
	C118.866814,54.000305 119.933411,54.000153 121.000000,54.000000 
z"/>
<path fill="#6441ED" opacity="1.000000" stroke="none" 
	d="
M1.000000,59.399994 
	C5.541389,55.262524 10.263886,51.721245 14.578633,47.738251 
	C20.055943,42.682087 25.210726,37.275848 30.489607,32.005566 
	C39.250984,23.258457 47.984962,14.483805 56.775482,5.766128 
	C57.813046,4.737166 59.133148,3.993103 60.875931,3.287421 
	C60.953011,4.971844 60.476429,6.485817 59.660988,8.057970 
	C48.881367,18.744047 38.440605,29.371948 27.660973,40.057991 
	C21.344410,45.853699 15.474482,51.710217 9.336315,57.270626 
	C6.859777,59.514057 3.796343,61.109608 1.000000,63.000000 
	C1.000000,61.933331 1.000000,60.866661 1.000000,59.399994 
z"/>
<path fill="#5D34EE" opacity="1.000000" stroke="none" 
	d="
M51.583336,0.999999 
	C47.411743,6.286355 42.955631,11.695548 38.192612,16.819452 
	C34.509735,20.781374 30.414774,24.357803 26.551893,28.155333 
	C18.829288,35.747288 11.147132,43.380398 3.419480,50.967186 
	C2.972649,51.405876 2.268560,51.582535 1.342098,51.940567 
	C1.000000,50.933331 1.000000,49.866661 1.337499,48.342079 
	C3.116526,46.256046 4.558055,44.627922 6.057286,42.669930 
	C7.076612,41.559887 8.038236,40.779713 9.337392,39.941799 
	C11.116522,38.255936 12.558118,36.627815 13.999857,34.749847 
	C14.000000,34.500000 14.000328,34.000305 14.348867,33.944752 
	C19.503456,29.717579 24.394392,25.637218 29.051367,21.305338 
	C30.115271,20.315704 30.371853,18.458166 31.132980,16.801777 
	C31.471365,16.354527 31.716043,16.153341 32.340916,15.984080 
	C33.454453,15.312087 34.227074,14.655936 35.132702,13.801498 
	C35.471161,13.354301 35.715874,13.153152 36.323753,12.919810 
	C37.765076,11.226737 38.882492,9.613616 39.999954,8.000247 
	C40.000000,8.000000 40.000458,7.999953 40.341316,7.984101 
	C41.454735,7.312181 42.227291,6.656114 43.132812,5.801716 
	C43.471191,5.354413 43.715881,5.153202 44.324017,4.919533 
	C45.432125,3.559541 46.216061,2.279770 47.000000,1.000000 
	C48.388889,1.000000 49.777779,1.000000 51.583336,0.999999 
z"/>
<path fill="#8279E5" opacity="1.000000" stroke="none" 
	d="
M3.416665,121.000000 
	C6.415340,116.826714 9.690768,112.527931 13.287940,108.517754 
	C16.470457,104.969841 20.021034,101.753090 23.391724,98.372780 
	C30.616343,91.127518 37.791740,83.832397 45.087269,76.659378 
	C46.227028,75.538757 47.892750,74.953087 49.658424,74.435532 
	C50.001106,75.500374 50.000629,76.249733 49.788876,77.196274 
	C49.385269,77.929161 49.192940,78.464890 49.000305,79.000305 
	C49.000000,79.000000 49.000690,79.000610 48.660645,79.059921 
	C47.506310,79.659904 46.575691,80.083382 45.895214,80.758858 
	C36.052090,90.529594 26.141512,100.236092 16.482365,110.186363 
	C13.309131,113.455246 10.808309,117.376869 8.000000,121.000000 
	C6.611111,121.000000 5.222222,121.000000 3.416665,121.000000 
z"/>
<path fill="#7661E9" opacity="1.000000" stroke="none" 
	d="
M1.000000,100.000000 
	C1.000000,98.611000 1.000000,97.222008 1.364813,95.401596 
	C5.315877,91.914314 9.020881,88.985413 12.458430,85.770531 
	C16.788576,81.720856 21.065588,77.588562 25.060602,73.213478 
	C29.229315,68.648163 33.035542,63.751850 37.416206,59.000168 
	C39.221443,58.999165 40.610718,58.998230 42.263092,59.263840 
	C42.975883,59.743164 43.425579,59.955956 43.957710,60.094559 
	C44.040150,60.020378 44.256832,60.067783 44.072029,60.367691 
	C43.924091,62.110718 43.960957,63.553833 43.664871,64.996552 
	C42.887966,64.996582 42.444012,64.997009 41.767303,64.800835 
	C36.985500,65.613884 26.065161,76.441315 24.999506,80.999542 
	C25.000000,81.000000 24.999058,80.999084 24.665894,80.999069 
	C23.888487,80.999268 23.444242,80.999481 22.659653,81.058716 
	C20.212744,83.744957 18.106182,86.372169 15.692386,89.145607 
	C13.256618,91.861115 11.128082,94.430405 8.999773,96.999847 
	C9.000000,97.000000 8.999166,96.999390 8.631414,97.014099 
	C5.842443,98.019203 3.421222,99.009605 1.000000,100.000000 
z"/>
<path fill="#735CEA" opacity="1.000000" stroke="none" 
	d="
M37.000244,59.000244 
	C33.035542,63.751850 29.229315,68.648163 25.060602,73.213478 
	C21.065588,77.588562 16.788576,81.720856 12.458430,85.770531 
	C9.020881,88.985413 5.315877,91.914314 1.364813,94.985092 
	C1.000000,92.958336 1.000000,90.916664 1.366357,88.423027 
	C6.454065,84.038078 11.310437,80.254364 15.863759,76.135628 
	C22.030218,70.557739 27.964273,64.722923 34.373219,58.998817 
	C35.498653,58.999241 36.248901,58.999165 36.999573,58.999542 
	C37.000000,59.000000 37.000244,59.000244 37.000244,59.000244 
z"/>
<path fill="#7D6EE7" opacity="1.000000" stroke="none" 
	d="
M43.997822,64.996948 
	C43.960957,63.553833 43.924091,62.110718 44.346218,60.489582 
	C45.887783,61.825115 46.970356,63.338673 48.052925,64.852226 
	C47.544601,66.214867 47.406109,67.944519 46.472588,68.885201 
	C32.056129,83.412148 17.538893,97.839111 3.024776,112.268898 
	C2.696494,112.595276 2.132059,112.684128 1.338888,112.941887 
	C1.000000,111.611107 1.000000,110.222221 1.348673,108.361176 
	C3.479817,106.744102 5.527205,105.867668 7.002736,104.411682 
	C18.532402,93.034828 29.992012,81.585785 41.350506,70.038300 
	C42.624557,68.743050 43.133873,66.695587 43.997822,64.996948 
z"/>
<path fill="#A5B9DF" opacity="1.000000" stroke="none" 
	d="
M121.000000,72.000000 
	C121.000000,73.714394 121.000000,75.428795 120.644226,77.629356 
	C117.310005,80.071701 113.938263,81.621742 111.423668,84.056892 
	C102.293297,92.898842 93.392708,101.981522 84.530251,111.094765 
	C81.497986,114.212852 78.832870,117.687996 76.000000,121.000000 
	C74.933327,121.000000 73.866653,121.000000 72.455887,120.652496 
	C72.796745,119.199387 73.286140,117.888199 74.197853,117.021027 
	C80.908119,110.638603 87.895699,104.535454 94.398499,97.951797 
	C98.302048,93.999710 101.490471,89.341278 105.330177,84.942635 
	C106.440140,83.923309 107.220222,82.961662 108.221573,81.752724 
	C112.628548,78.336960 116.814278,75.168480 121.000000,72.000000 
z"/>
<path fill="#847DE5" opacity="1.000000" stroke="none" 
	d="
M8.416667,121.000000 
	C10.808309,117.376869 13.309131,113.455246 16.482365,110.186363 
	C26.141512,100.236092 36.052090,90.529594 45.895214,80.758858 
	C46.575691,80.083382 47.506310,79.659904 48.703571,79.346359 
	C49.391129,80.049187 49.695717,80.524902 49.942116,81.339447 
	C48.779301,83.095451 47.824539,84.668251 46.543289,85.901985 
	C41.782295,90.486443 36.836563,94.880096 32.106205,99.495056 
	C26.705921,104.763580 21.380753,110.115631 16.202618,115.601006 
	C14.801241,117.085533 14.049770,119.183563 12.999999,121.000000 
	C11.611111,121.000000 10.222222,121.000000 8.416667,121.000000 
z"/>
<path fill="#A7BEDE" opacity="1.000000" stroke="none" 
	d="
M76.416672,121.000000 
	C78.832870,117.687996 81.497986,114.212852 84.530251,111.094765 
	C93.392708,101.981522 102.293297,92.898842 111.423668,84.056892 
	C113.938263,81.621742 117.310005,80.071701 120.644226,78.057762 
	C121.000000,78.750000 121.000000,79.500000 120.660614,80.683289 
	C113.329277,87.561264 106.263283,93.928078 99.372902,100.479599 
	C95.182091,104.464325 91.158241,108.639183 87.260300,112.911919 
	C84.970085,115.422340 83.073586,118.291946 81.000000,121.000000 
	C79.611107,121.000000 78.222221,121.000000 76.416672,121.000000 
z"/>
<path fill="#735EEA" opacity="1.000000" stroke="none" 
	d="
M91.000000,0.999999 
	C92.389000,1.000000 93.777992,1.000000 95.523743,1.343330 
	C85.805260,12.319887 75.900635,23.124420 65.525452,33.456429 
	C63.163860,35.808189 61.666878,37.755859 61.669601,41.001945 
	C60.559490,41.339851 59.779030,41.665169 58.623657,41.992920 
	C57.498379,41.992867 56.748016,41.990379 56.000938,41.604797 
	C56.988922,39.199650 57.534206,36.744965 59.029797,35.225903 
	C68.578674,25.527197 78.388657,16.085880 87.968658,6.417129 
	C89.372032,5.000745 90.008614,2.824600 91.000000,0.999999 
z"/>
<path fill="#847DE5" opacity="1.000000" stroke="none" 
	d="
M121.000000,9.000002 
	C121.000000,10.066787 121.000000,11.133574 120.661102,12.658264 
	C117.740776,15.384729 115.017372,17.512445 112.602737,19.946470 
	C102.665199,29.963776 92.821487,40.074150 82.637001,50.080425 
	C81.924683,49.907516 81.518623,49.804478 81.089180,49.429310 
	C80.745613,48.754044 80.425438,48.350910 80.067703,47.640358 
	C80.008446,46.920631 79.986748,46.508320 80.201309,45.851723 
	C81.453941,45.051266 82.671776,44.695648 83.455750,43.908123 
	C92.004326,35.320911 100.338638,26.514423 109.054932,18.103024 
	C112.632851,14.650268 116.994736,12.009911 121.000000,9.000002 
z"/>
<path fill="#725AEA" opacity="1.000000" stroke="none" 
	d="
M90.583336,0.999999 
	C90.008614,2.824600 89.372032,5.000745 87.968658,6.417129 
	C78.388657,16.085880 68.578674,25.527197 59.029797,35.225903 
	C57.534206,36.744965 56.988922,39.199650 55.995995,41.810574 
	C55.987762,42.399441 55.955254,42.808502 55.715599,42.887436 
	C55.317467,43.023872 55.158997,43.081375 54.632114,43.038147 
	C53.504463,42.867287 52.745224,42.797153 51.967041,42.367073 
	C51.965691,39.671768 51.983280,37.336411 52.287342,34.957951 
	C53.049667,34.610390 53.525524,34.305927 54.363480,33.987484 
	C56.361622,32.937687 58.231091,32.143032 59.593372,30.824400 
	C65.545967,25.062536 71.565323,19.342976 77.130379,13.217354 
	C80.494087,9.514812 83.070076,5.096634 86.000000,1.000001 
	C87.388893,1.000000 88.777779,1.000000 90.583336,0.999999 
z"/>
<path fill="#AFCBDD" opacity="1.000000" stroke="none" 
	d="
M121.000000,92.000000 
	C121.000000,93.714378 121.000000,95.428749 120.656891,97.631264 
	C113.262421,104.667900 106.178398,111.182068 99.207443,117.815086 
	C98.466049,118.520554 98.386559,119.921631 98.000000,121.000000 
	C96.285622,121.000000 94.571251,121.000000 92.484024,120.651169 
	C99.012428,112.571625 105.765823,104.700264 112.904846,97.195763 
	C115.051620,94.939095 118.271645,93.703415 121.000000,92.000000 
z"/>
<path fill="#5B2FEE" opacity="1.000000" stroke="none" 
	d="
M8.999859,39.999542 
	C8.038236,40.779713 7.076612,41.559887 5.720850,42.726898 
	C3.884474,43.742489 2.442237,44.371246 1.000000,45.000000 
	C1.000000,43.611111 1.000000,42.222221 1.340993,40.357552 
	C4.454418,37.587418 7.226849,35.293060 10.289401,32.833519 
	C14.213589,28.886549 17.877031,25.132425 21.472439,21.314238 
	C24.357874,18.250015 27.160818,15.108116 30.339233,11.942471 
	C34.118732,8.256170 37.559368,4.628086 41.000000,1.000000 
	C42.066669,1.000000 43.133339,1.000000 44.548317,1.340787 
	C44.597698,2.787634 44.298771,3.893694 43.999847,4.999753 
	C43.715881,5.153202 43.471191,5.354413 42.819344,5.848582 
	C41.582092,6.729170 40.791275,7.364563 40.000458,7.999954 
	C40.000458,7.999953 40.000000,8.000000 39.661491,8.061743 
	C38.215271,9.748911 37.107559,11.374337 35.999847,12.999763 
	C35.715874,13.153152 35.471161,13.354301 34.819233,13.848413 
	C33.581841,14.729050 32.790920,15.364487 32.000000,15.999924 
	C31.716043,16.153341 31.471365,16.354527 30.844292,16.966320 
	C24.948524,22.886209 19.474426,28.443256 14.000328,34.000305 
	C14.000328,34.000305 14.000000,34.500000 13.662389,34.807800 
	C11.883138,36.743580 10.441498,38.371559 8.999859,39.999542 
z"/>
<path fill="#ACC6DD" opacity="1.000000" stroke="none" 
	d="
M121.000000,91.571541 
	C118.271645,93.703415 115.051620,94.939095 112.904846,97.195763 
	C105.765823,104.700264 99.012428,112.571625 92.055588,120.651169 
	C90.285645,121.000000 88.571281,121.000000 86.483948,120.651428 
	C87.372276,118.403763 88.384781,116.265427 89.939583,114.648582 
	C95.537865,108.826958 101.168205,103.018967 107.080780,97.522461 
	C111.484924,93.428207 116.343704,89.823006 121.000000,86.000000 
	C121.000000,87.714355 121.000000,89.428719 121.000000,91.571541 
z"/>
<path fill="#6C4EEC" opacity="1.000000" stroke="none" 
	d="
M1.000000,78.000000 
	C1.000000,76.611000 1.000000,75.222008 1.362151,73.402832 
	C6.834187,68.617447 12.049434,64.378754 17.027040,59.877277 
	C23.121365,54.365910 29.016663,48.634460 34.998627,43.373325 
	C34.999542,44.498684 34.999855,45.248886 34.709351,46.166809 
	C33.279026,48.222919 32.139515,50.111305 30.711361,52.164360 
	C24.440737,58.227028 18.637047,64.322624 12.406180,69.944801 
	C8.974942,73.040840 4.825593,75.341019 1.000000,78.000000 
z"/>
<path fill="#8781E5" opacity="1.000000" stroke="none" 
	d="
M13.399995,121.000000 
	C14.049770,119.183563 14.801241,117.085533 16.202618,115.601006 
	C21.380753,110.115631 26.705921,104.763580 32.106205,99.495056 
	C36.836563,94.880096 41.782295,90.486443 46.543289,85.901985 
	C47.824539,84.668251 48.779301,83.095451 50.278847,81.249962 
	C52.782307,79.880554 54.890846,78.939476 57.000835,78.248611 
	C57.002934,78.665611 57.003582,78.832405 56.791077,79.251694 
	C46.789402,89.112419 36.876945,98.599083 27.274067,108.389404 
	C23.493435,112.243805 20.404125,116.776299 17.000000,121.000000 
	C15.933331,121.000000 14.866661,121.000000 13.399995,121.000000 
z"/>
<path fill="#B3D2DC" opacity="1.000000" stroke="none" 
	d="
M98.449974,121.000000 
	C98.386559,119.921631 98.466049,118.520554 99.207443,117.815086 
	C106.178398,111.182068 113.262421,104.667900 120.656891,98.059700 
	C121.000000,100.370560 121.000000,102.741112 120.658852,105.614609 
	C115.290138,110.551895 108.414337,113.332329 107.000000,121.000000 
	C104.299988,121.000000 101.599968,121.000000 98.449974,121.000000 
z"/>
<path fill="#827AE5" opacity="1.000000" stroke="none" 
	d="
M121.000000,8.600006 
	C116.994736,12.009911 112.632851,14.650268 109.054932,18.103024 
	C100.338638,26.514423 92.004326,35.320911 83.455750,43.908123 
	C82.671776,44.695648 81.453941,45.051266 79.909370,45.714226 
	C78.223946,44.911625 77.066711,44.002235 76.096527,42.862137 
	C76.855919,42.087921 77.428261,41.544418 78.333488,41.000523 
	C79.110207,40.999615 79.554047,40.999100 80.222267,41.193176 
	C81.893784,40.495869 83.573082,39.839058 84.751648,38.675201 
	C94.952538,28.601610 105.012199,18.384562 115.256172,8.355540 
	C116.792908,6.851055 119.067001,6.099734 121.000000,5.000003 
	C121.000000,6.066669 121.000000,7.133339 121.000000,8.600006 
z"/>
<path fill="#AAC2DE" opacity="1.000000" stroke="none" 
	d="
M121.000000,85.583336 
	C116.343704,89.823006 111.484924,93.428207 107.080780,97.522461 
	C101.168205,103.018967 95.537865,108.826958 89.939583,114.648582 
	C88.384781,116.265427 87.372276,118.403763 86.055489,120.651428 
	C84.611107,121.000000 83.222221,121.000000 81.416664,121.000000 
	C83.073586,118.291946 84.970085,115.422340 87.260300,112.911919 
	C91.158241,108.639183 95.182091,104.464325 99.372902,100.479599 
	C106.263283,93.928078 113.329277,87.561264 120.660614,81.058289 
	C121.000000,82.388893 121.000000,83.777779 121.000000,85.583336 
z"/>
<path fill="#7E72E6" opacity="1.000000" stroke="none" 
	d="
M79.997887,40.998589 
	C79.554047,40.999100 79.110207,40.999615 78.270340,40.699051 
	C77.249199,39.597958 76.624084,38.797939 76.143219,37.700172 
	C77.858826,35.935207 79.430176,34.467995 81.340317,32.942528 
	C86.452942,27.923029 91.226776,22.961782 96.198799,17.867483 
	C96.645782,17.529001 96.846992,17.284420 97.339470,16.942507 
	C101.224091,13.651023 104.928101,10.569966 108.247742,7.119140 
	C109.867989,5.434873 110.771866,3.061473 112.000000,1.000000 
	C113.066788,1.000000 114.133575,1.000000 115.586533,1.362151 
	C115.629440,2.640013 115.537552,3.810935 114.905518,4.433451 
	C104.038826,15.136508 93.069260,25.735384 82.240646,36.476467 
	C81.110161,37.597820 80.727516,39.473106 79.997887,40.998589 
z"/>
<path fill="#8B89E4" opacity="1.000000" stroke="none" 
	d="
M57.004234,78.999207 
	C57.003582,78.832405 57.002934,78.665611 57.000607,77.896255 
	C56.990898,76.589035 56.982861,75.884377 57.198265,75.121399 
	C57.421700,75.063087 57.883343,75.049538 58.028194,75.352356 
	C59.112999,76.505226 60.052948,77.355286 60.994049,78.588425 
	C60.814247,84.929039 56.241062,87.958923 52.612957,91.645912 
	C51.294945,92.985298 50.198273,94.542488 49.000305,96.250076 
	C49.000000,96.499847 48.999390,96.999390 48.657101,97.058960 
	C42.828457,101.960426 37.153019,106.609329 31.933281,111.723343 
	C29.208307,114.393127 27.285254,117.881409 25.000000,121.000000 
	C23.933214,121.000000 22.866426,121.000000 21.458771,120.658875 
	C27.902182,112.988754 34.580235,105.557419 41.508301,98.366974 
	C46.082443,93.619576 51.170994,89.363953 55.679821,84.560188 
	C56.811562,83.354424 56.598988,80.886871 57.004234,78.999207 
z"/>
<path fill="#9399E3" opacity="1.000000" stroke="none" 
	d="
M71.000916,88.000542 
	C70.515297,89.041092 70.252808,90.288689 69.509300,91.089920 
	C62.655178,98.476166 55.678455,105.748695 48.828556,113.138794 
	C46.749203,115.382141 44.953300,117.888214 43.013786,120.636978 
	C41.285641,121.000000 39.571285,121.000000 37.487499,120.660187 
	C38.136501,119.048485 39.133564,117.758766 40.177437,116.508125 
	C43.108116,112.996941 46.058094,109.501854 49.339554,105.942101 
	C51.083088,104.791809 52.590023,103.807785 53.873898,102.588829 
	C58.953777,97.765846 63.963795,92.869286 69.333237,88.000038 
	C70.111481,88.000229 70.556198,88.000389 71.000916,88.000542 
z"/>
<path fill="#A3B5DF" opacity="1.000000" stroke="none" 
	d="
M105.000305,85.000305 
	C101.490471,89.341278 98.302048,93.999710 94.398499,97.951797 
	C87.895699,104.535454 80.908119,110.638603 74.197853,117.021027 
	C73.286140,117.888199 72.796745,119.199387 72.055901,120.652496 
	C70.933327,121.000000 69.866661,121.000000 68.458466,120.659439 
	C72.411407,115.212791 76.705879,110.106705 81.339134,104.942368 
	C84.118912,102.256287 86.559921,99.628456 89.266617,96.845718 
	C90.354973,95.794159 91.177643,94.897507 92.365417,93.986420 
	C94.231758,92.853745 95.724007,91.723206 97.236191,90.619980 
	C99.817039,88.737122 102.410378,86.871399 104.999237,84.999237 
	C105.000000,85.000000 105.000305,85.000305 105.000305,85.000305 
z"/>
<path fill="#7662E9" opacity="1.000000" stroke="none" 
	d="
M61.999252,40.989353 
	C61.666878,37.755859 63.163860,35.808189 65.525452,33.456429 
	C75.900635,23.124420 85.805260,12.319887 95.940247,1.343330 
	C97.066673,1.000000 98.133339,1.000000 99.586136,1.363003 
	C98.052246,4.309132 96.295792,7.035946 94.178688,9.445938 
	C89.549301,14.715775 84.736786,19.824743 79.707840,25.164345 
	C77.277473,27.552565 75.138351,29.775862 72.647568,32.056030 
	C69.181114,33.684769 65.245720,34.387539 65.001251,39.333591 
	C64.999939,40.112045 64.999207,40.556889 64.623581,41.001274 
	C63.498871,40.996998 62.749062,40.993176 61.999252,40.989353 
z"/>
<path fill="#8076E5" opacity="1.000000" stroke="none" 
	d="
M80.222267,41.193176 
	C80.727516,39.473106 81.110161,37.597820 82.240646,36.476467 
	C93.069260,25.735384 104.038826,15.136508 114.905518,4.433451 
	C115.537552,3.810935 115.629440,2.640013 115.986343,1.362151 
	C117.864624,1.670074 121.748230,-1.024826 121.000000,4.500003 
	C119.067001,6.099734 116.792908,6.851055 115.256172,8.355540 
	C105.012199,18.384562 94.952538,28.601610 84.751648,38.675201 
	C83.573082,39.839058 81.893784,40.495869 80.222267,41.193176 
z"/>
<path fill="#6949EC" opacity="1.000000" stroke="none" 
	d="
M34.998016,42.998169 
	C29.016663,48.634460 23.121365,54.365910 17.027040,59.877277 
	C12.049434,64.378754 6.834187,68.617447 1.362151,72.986328 
	C1.000000,72.250000 1.000000,71.500000 1.329876,70.317413 
	C2.439896,68.923523 3.220042,67.962219 4.000093,67.000458 
	C4.000000,67.000000 4.000842,67.000214 4.339065,66.942162 
	C6.451673,64.922897 8.226058,62.961678 10.250277,61.000271 
	C10.500109,61.000084 10.999774,60.999695 11.339798,60.940323 
	C16.538908,56.196037 21.507093,51.616943 26.203878,46.774605 
	C28.107403,44.812084 29.419331,42.275753 31.310991,39.929070 
	C32.747581,38.904919 33.873638,37.952232 35.336266,36.942749 
	C37.115780,36.257786 38.558723,35.629616 39.943382,35.340485 
	C38.256069,38.119072 36.627045,40.558620 34.998016,42.998169 
z"/>
<path fill="#7B6AE9" opacity="1.000000" stroke="none" 
	d="
M43.664871,64.996552 
	C43.133873,66.695587 42.624557,68.743050 41.350506,70.038300 
	C29.992012,81.585785 18.532402,93.034828 7.002736,104.411682 
	C5.527205,105.867668 3.479817,106.744102 1.348673,107.944511 
	C1.000000,106.933327 1.000000,105.866661 1.366214,104.385452 
	C5.253344,102.792267 8.760983,101.599777 8.999166,96.999390 
	C8.999166,96.999390 9.000000,97.000000 9.343113,96.940323 
	C12.457737,94.253960 15.229249,91.627281 18.326893,88.918152 
	C20.102121,86.890549 21.551214,84.945396 23.302378,82.929611 
	C24.069317,82.239021 24.534189,81.619057 24.999060,80.999084 
	C24.999058,80.999084 25.000000,81.000000 25.342390,80.940338 
	C31.123205,75.586258 36.561630,70.291847 42.000053,64.997437 
	C42.444012,64.997009 42.887966,64.996582 43.664871,64.996552 
z"/>
<path fill="#8985E4" opacity="1.000000" stroke="none" 
	d="
M56.791077,79.251694 
	C56.598988,80.886871 56.811562,83.354424 55.679821,84.560188 
	C51.170994,89.363953 46.082443,93.619576 41.508301,98.366974 
	C34.580235,105.557419 27.902182,112.988754 21.058950,120.658875 
	C19.933331,121.000000 18.866661,121.000000 17.399998,121.000000 
	C20.404125,116.776299 23.493435,112.243805 27.274067,108.389404 
	C36.876945,98.599083 46.789402,89.112419 56.791077,79.251694 
z"/>
<path fill="#7057EB" opacity="1.000000" stroke="none" 
	d="
M33.998024,58.998322 
	C27.964273,64.722923 22.030218,70.557739 15.863759,76.135628 
	C11.310437,80.254364 6.454065,84.038078 1.366357,87.985527 
	C1.000000,86.611107 1.000000,85.222221 1.349458,83.360840 
	C6.444375,79.093224 11.389271,75.518547 15.886945,71.449524 
	C22.101309,65.827415 27.978643,59.832783 34.248318,53.997139 
	C34.496315,53.996582 34.992302,53.993774 34.935501,54.355045 
	C34.585144,56.143650 34.291584,57.570988 33.998024,58.998322 
z"/>
<path fill="#8781E5" opacity="1.000000" stroke="none" 
	d="
M82.943268,50.150299 
	C92.821487,40.074150 102.665199,29.963776 112.602737,19.946470 
	C115.017372,17.512445 117.740776,15.384729 120.661102,13.058084 
	C121.000000,14.388889 121.000000,15.777779 120.636147,17.597448 
	C118.309761,19.162619 116.085396,20.004900 114.433372,21.485695 
	C109.300858,26.086210 104.223221,30.772320 99.438202,35.728291 
	C95.715530,39.583942 92.462410,43.892933 88.825043,48.300148 
	C86.816284,49.397057 84.983093,50.194256 83.083290,50.784843 
	C83.016670,50.578224 82.943268,50.150299 82.943268,50.150299 
z"/>
<path fill="#6E53EB" opacity="1.000000" stroke="none" 
	d="
M34.000320,53.997696 
	C27.978643,59.832783 22.101309,65.827415 15.886945,71.449524 
	C11.389271,75.518547 6.444375,79.093224 1.349458,82.944183 
	C1.000000,81.611107 1.000000,80.222221 1.000000,78.416664 
	C4.825593,75.341019 8.974942,73.040840 12.406180,69.944801 
	C18.637047,64.322624 24.440737,58.227028 31.024754,52.211342 
	C32.417965,52.728344 33.209141,53.363018 34.000320,53.997696 
z"/>
<path fill="#5424EF" opacity="1.000000" stroke="none" 
	d="
M1.000000,34.000000 
	C1.000000,32.611004 1.000000,31.222006 1.364431,29.402493 
	C3.001205,28.288553 4.537037,27.862543 5.499993,26.876865 
	C9.532437,22.749250 13.197300,18.247042 17.379789,14.286487 
	C20.625198,11.213288 24.438402,8.739704 27.856152,6.316696 
	C27.475460,7.755762 27.237844,8.877728 26.823400,10.287407 
	C20.764242,17.049831 14.881911,23.524540 8.657666,30.058823 
	C5.877168,31.412262 3.438584,32.706131 1.000000,34.000000 
z"/>
<path fill="#9093E4" opacity="1.000000" stroke="none" 
	d="
M121.000000,31.000000 
	C121.000000,32.066788 121.000000,33.133575 120.660629,34.658493 
	C118.926338,36.199047 117.411133,37.159584 116.163246,38.391003 
	C114.020927,40.505028 112.045494,42.788162 109.662483,45.058075 
	C107.883415,46.743908 106.441864,48.371967 104.929565,50.302017 
	C104.239212,51.069439 103.619606,51.534874 102.660263,52.058800 
	C100.460739,53.885223 98.749504,55.853123 96.704826,57.372204 
	C93.937386,59.428265 90.914093,61.139961 88.143524,62.682434 
	C88.524727,61.244209 88.762978,60.122944 89.352325,58.944496 
	C91.415756,57.941208 93.478249,57.334896 94.781555,55.991859 
	C101.437775,49.132740 107.801254,41.988556 114.492180,35.164757 
	C116.249489,33.372555 118.808922,32.366871 121.000000,31.000000 
z"/>
<path fill="#9398E3" opacity="1.000000" stroke="none" 
	d="
M103.000000,52.000305 
	C103.619606,51.534874 104.239212,51.069439 105.267029,50.244122 
	C107.116829,48.256260 108.558411,46.628284 110.000000,45.000305 
	C112.045494,42.788162 114.020927,40.505028 116.163246,38.391003 
	C117.411133,37.159584 118.926338,36.199047 120.660629,35.058311 
	C121.000000,37.370556 121.000000,39.741116 121.000000,42.555832 
	C116.873741,46.008663 112.623131,48.863518 108.656906,52.070118 
	C104.844826,55.152103 101.327156,58.598255 97.395889,61.594101 
	C99.074448,58.202644 101.037224,55.101475 103.000000,52.000305 
z"/>
<path fill="#7056EB" opacity="1.000000" stroke="none" 
	d="
M85.625000,1.000001 
	C83.070076,5.096634 80.494087,9.514812 77.130379,13.217354 
	C71.565323,19.342976 65.545967,25.062536 59.593372,30.824400 
	C58.231091,32.143032 56.361622,32.937687 54.529709,33.692764 
	C59.679821,27.623140 65.114944,21.913359 70.344154,16.020847 
	C74.688484,11.125462 78.790588,6.015120 83.000000,0.999999 
	C83.750000,1.000000 84.500000,1.000000 85.625000,1.000001 
z"/>
<path fill="#8C8CE4" opacity="1.000000" stroke="none" 
	d="
M121.000000,24.000000 
	C121.000000,25.066786 121.000000,26.133574 120.651428,27.655674 
	C118.393486,29.382452 116.235909,30.398302 114.617714,31.969618 
	C107.597908,38.786057 100.774673,45.804604 93.782234,52.649837 
	C92.410080,53.993107 90.604874,54.894009 89.013168,55.636871 
	C92.354927,51.514294 95.633347,47.708412 99.023003,44.004318 
	C103.637222,38.962048 108.336357,33.997482 112.999542,28.749809 
	C113.000000,28.500019 113.000916,28.000439 113.348854,27.944977 
	C116.131195,26.593008 118.565598,25.296503 121.000000,24.000000 
z"/>
<path fill="#8E8FE4" opacity="1.000000" stroke="none" 
	d="
M88.999390,55.998932 
	C90.604874,54.894009 92.410080,53.993107 93.782234,52.649837 
	C100.774673,45.804604 107.597908,38.786057 114.617714,31.969618 
	C116.235909,30.398302 118.393486,29.382452 120.651428,28.055492 
	C121.000000,28.750000 121.000000,29.500000 121.000000,30.625000 
	C118.808922,32.366871 116.249489,33.372555 114.492180,35.164757 
	C107.801254,41.988556 101.437775,49.132740 94.781555,55.991859 
	C93.478249,57.334896 91.415756,57.941208 89.351944,58.569214 
	C89.000313,57.500645 89.000160,56.750168 89.000000,55.999847 
	C89.000000,56.000000 88.999390,55.998932 88.999390,55.998932 
z"/>
<path fill="#6E53EC" opacity="1.000000" stroke="none" 
	d="
M82.625000,0.999999 
	C78.790588,6.015120 74.688484,11.125462 70.344154,16.020847 
	C65.114944,21.913359 59.679821,27.623140 54.167610,33.706749 
	C53.525524,34.305927 53.049667,34.610390 52.286907,34.957424 
	C52.000000,35.000000 51.998474,34.998322 52.013252,34.629593 
	C53.685452,31.173986 55.342880,28.087107 57.339901,24.941738 
	C60.119663,21.922218 62.559834,18.961185 65.000351,15.666914 
	C65.001488,14.889371 65.002266,14.445066 65.318092,13.957591 
	C66.422188,13.609636 67.211250,13.304853 68.342201,12.940695 
	C73.210182,9.639112 78.737816,7.350789 80.000000,1.000000 
	C80.750000,1.000000 81.500000,1.000000 82.625000,0.999999 
z"/>
<path fill="#5220F0" opacity="1.000000" stroke="none" 
	d="
M27.999224,5.999595 
	C24.438402,8.739704 20.625198,11.213288 17.379789,14.286487 
	C13.197300,18.247042 9.532437,22.749250 5.499993,26.876865 
	C4.537037,27.862543 3.001205,28.288553 1.364431,28.985989 
	C1.000000,28.250000 1.000000,27.500000 1.336545,26.317282 
	C3.448568,23.922915 5.224047,21.961267 7.231689,19.800529 
	C8.309062,18.734077 9.154270,17.866716 10.338703,16.941364 
	C15.249060,12.536980 19.861668,8.232420 24.340170,3.792586 
	C24.916508,3.221223 24.797108,1.948062 25.000000,1.000000 
	C26.066669,1.000000 27.133339,1.000000 28.598175,1.370956 
	C28.663967,3.161140 28.331594,4.580367 27.999224,5.999595 
z"/>
<path fill="#8984E5" opacity="1.000000" stroke="none" 
	d="
M113.000916,28.000439 
	C113.000916,28.000439 113.000000,28.500019 112.650497,28.805553 
	C108.814972,31.828817 105.283180,34.490265 101.854462,37.278461 
	C97.525894,40.798416 93.281380,44.421719 89.000610,48.000443 
	C92.462410,43.892933 95.715530,39.583942 99.438202,35.728291 
	C104.223221,30.772320 109.300858,26.086210 114.433372,21.485695 
	C116.085396,20.004900 118.309761,19.162619 120.636147,18.014114 
	C121.000000,18.750000 121.000000,19.500000 120.637604,20.638706 
	C117.850441,23.351755 115.425674,25.676098 113.000916,28.000439 
z"/>
<path fill="#4C14F2" opacity="1.000000" stroke="none" 
	d="
M11.000000,1.000000 
	C12.714421,1.000000 14.428843,1.000000 16.557564,1.363862 
	C13.781181,9.245707 7.252368,13.487183 1.000000,18.000000 
	C1.000000,15.958333 1.000000,13.916665 1.338867,11.379335 
	C4.785156,7.589116 7.892579,4.294558 11.000000,1.000000 
z"/>
<path fill="#99A2E2" opacity="1.000000" stroke="none" 
	d="
M59.000053,112.000610 
	C57.391296,113.786308 55.782539,115.572006 53.756863,117.736443 
	C52.559959,119.076782 51.779980,120.038391 51.000000,121.000000 
	C50.555553,121.000000 50.111111,121.000000 49.333332,121.000000 
	C49.301323,119.579239 49.117874,117.672867 49.979176,116.813057 
	C58.326015,108.480713 66.848099,100.323921 75.603851,92.409393 
	C74.551895,94.491135 73.342422,96.393829 71.856606,98.048370 
	C67.631462,102.753326 63.293560,107.357040 59.000053,112.000610 
z"/>
<path fill="#6949EC" opacity="1.000000" stroke="none" 
	d="
M69.000000,1.000000 
	C70.066788,1.000000 71.133575,1.000000 72.543251,1.336466 
	C72.257324,3.115159 71.628510,4.557386 70.676315,6.088296 
	C69.901756,7.117871 69.450569,8.058764 68.749695,8.999898 
	C68.500000,9.000140 68.000610,9.000813 67.662071,9.062174 
	C66.215485,10.748970 65.107437,12.374406 63.669533,14.057442 
	C62.559784,15.076720 61.779892,16.038399 60.750286,17.000385 
	C60.500572,17.000690 60.001144,17.001001 59.663506,17.058525 
	C57.883804,18.743904 56.441750,20.371761 54.697723,22.070358 
	C53.930351,22.760647 53.464947,23.380192 52.663807,24.057346 
	C51.218765,25.409994 50.109459,26.705034 48.801880,28.133095 
	C48.354706,28.471556 48.153522,28.716234 47.666641,29.000063 
	C46.888668,28.999779 46.444103,28.999584 46.055099,28.650852 
	C47.493805,26.281517 48.662071,24.063429 50.301441,22.277872 
	C54.760979,17.420664 59.419834,12.746450 64.245674,7.781055 
	C65.994438,5.374933 67.497215,3.187466 69.000000,1.000000 
z"/>
<path fill="#4F19F1" opacity="1.000000" stroke="none" 
	d="
M1.000000,18.399996 
	C7.252368,13.487183 13.781181,9.245707 16.985931,1.363862 
	C18.388889,1.000000 19.777779,1.000000 21.524719,1.340372 
	C21.015089,2.861306 20.176722,4.064804 19.274389,5.218261 
	C16.194897,9.154793 13.092893,13.073714 9.999479,16.999355 
	C9.154270,17.866716 8.309062,18.734077 6.871058,19.814156 
	C4.518841,20.684584 2.759421,21.342291 1.000000,22.000000 
	C1.000000,20.933331 1.000000,19.866661 1.000000,18.399996 
z"/>
<path fill="#A0B0E0" opacity="1.000000" stroke="none" 
	d="
M81.000351,105.000610 
	C76.705879,110.106705 72.411407,115.212791 68.058472,120.659439 
	C66.611115,121.000000 65.222221,121.000000 63.475616,120.660049 
	C65.411736,117.546730 67.705566,114.773369 70.059311,111.659790 
	C74.412720,107.546486 78.706207,103.773376 82.942841,100.336746 
	C82.257439,102.115685 81.628891,103.558144 81.000351,105.000610 
z"/>
<path fill="#7966EA" opacity="1.000000" stroke="none" 
	d="
M79.999084,24.999424 
	C84.736786,19.824743 89.549301,14.715775 94.178688,9.445938 
	C96.295792,7.035946 98.052246,4.309132 99.986130,1.363003 
	C101.388893,1.000000 102.777779,1.000000 104.583405,1.374951 
	C104.999886,2.499803 104.999634,3.249704 104.657333,4.059149 
	C101.877060,6.412563 99.438835,8.706435 97.000305,11.250078 
	C97.000000,11.499849 96.999390,11.999390 96.650780,12.054993 
	C94.427025,13.348356 92.332375,14.353810 90.723862,15.873742 
	C87.669014,18.760363 84.892448,21.941488 81.666779,25.000189 
	C80.888527,24.999865 80.443802,24.999645 79.999084,24.999424 
z"/>
<path fill="#B6D9DB" opacity="1.000000" stroke="none" 
	d="
M107.428467,121.000000 
	C108.414337,113.332329 115.290138,110.551895 120.658852,106.058777 
	C121.000000,108.041664 121.000000,110.083336 120.636307,112.576370 
	C116.094025,114.084747 113.986061,117.030647 113.000000,121.000000 
	C111.285645,121.000000 109.571281,121.000000 107.428467,121.000000 
z"/>
<path fill="#6644EC" opacity="1.000000" stroke="none" 
	d="
M10.999775,60.999695 
	C10.999774,60.999695 10.500109,61.000084 9.911917,61.058151 
	C7.549430,63.077549 5.775136,65.038879 4.000842,67.000214 
	C4.000842,67.000214 4.000000,67.000000 3.625067,67.000175 
	C2.500089,67.000237 1.750045,67.000122 1.000000,67.000000 
	C1.000000,65.933334 1.000000,64.866661 1.000000,63.399994 
	C3.796343,61.109608 6.859777,59.514057 9.336315,57.270626 
	C15.474482,51.710217 21.344410,45.853699 27.661051,40.058067 
	C28.000000,40.000000 28.000696,40.000763 27.942387,40.339561 
	C23.972916,44.902054 19.943424,49.024265 16.198576,53.390606 
	C14.210736,55.708344 12.716714,58.449612 10.999775,60.999695 
z"/>
<path fill="#8D8CE4" opacity="1.000000" stroke="none" 
	d="
M25.399996,121.000000 
	C27.285254,117.881409 29.208307,114.393127 31.933281,111.723343 
	C37.153019,106.609329 42.828457,101.960426 48.657356,97.392456 
	C49.000084,98.111023 49.000271,98.555664 49.000229,99.250153 
	C49.000000,99.500000 48.999542,99.999695 48.660671,100.057846 
	C42.796703,105.214905 37.165436,110.206299 31.818670,115.485825 
	C30.423992,116.862968 29.915501,119.137581 29.000000,121.000000 
	C27.933331,121.000000 26.866661,121.000000 25.399996,121.000000 
z"/>
<path fill="#8E8FE4" opacity="1.000000" stroke="none" 
	d="
M29.375000,121.000000 
	C29.915501,119.137581 30.423992,116.862968 31.818670,115.485825 
	C37.165436,110.206299 42.796703,105.214905 48.660843,100.391281 
	C49.000072,101.111145 49.000252,101.555725 49.000217,102.250153 
	C49.000000,102.500000 48.999542,102.999695 48.662079,103.057617 
	C46.882927,104.743500 45.441235,106.371445 43.669739,108.057175 
	C42.559723,109.076439 41.779514,110.037910 40.697342,111.070091 
	C39.930161,111.760376 39.464943,112.379967 38.718643,113.158920 
	C36.958477,114.545624 35.479389,115.772972 33.712749,117.180389 
	C32.950127,118.573639 32.475060,119.786819 31.999998,121.000000 
	C31.250000,121.000000 30.500000,121.000000 29.375000,121.000000 
z"/>
<path fill="#9095E4" opacity="1.000000" stroke="none" 
	d="
M34.000305,117.000313 
	C35.479389,115.772972 36.958477,114.545624 39.020756,113.088486 
	C40.069069,112.238914 40.534187,111.619156 40.999306,110.999390 
	C41.779514,110.037910 42.559723,109.076439 44.006279,108.000465 
	C46.114876,107.257103 47.557133,106.628250 48.999695,105.999695 
	C49.000000,106.000000 49.000458,106.000412 49.000458,106.000412 
	C46.058094,109.501854 43.108116,112.996941 40.177437,116.508125 
	C39.133564,117.758766 38.136501,119.048485 37.059036,120.660187 
	C35.933331,121.000000 34.866661,121.000000 33.543339,120.683014 
	C33.524559,119.244125 33.762432,118.122215 34.000305,117.000313 
z"/>
<path fill="#480CF2" opacity="1.000000" stroke="none" 
	d="
M10.513435,1.000000 
	C7.892579,4.294558 4.785156,7.589116 1.338867,10.941837 
	C1.000000,7.747543 1.000000,4.495087 1.000000,1.000000 
	C4.006597,1.000000 7.016734,1.000000 10.513435,1.000000 
z"/>
<path fill="#A3B5E0" opacity="1.000000" stroke="none" 
	d="
M121.000000,71.600006 
	C116.814278,75.168480 112.628548,78.336960 107.846672,81.752716 
	C106.500755,82.000099 105.750984,82.000198 105.000809,81.750183 
	C105.000160,81.333305 104.999924,81.166557 105.273483,80.836304 
	C106.698250,79.448326 107.849213,78.223854 109.339699,76.941139 
	C111.736725,75.005447 113.710930,73.024101 115.879616,71.285316 
	C117.453003,70.023819 119.283913,69.083519 121.000000,68.000000 
	C121.000000,69.066673 121.000000,70.133339 121.000000,71.600006 
z"/>
<path fill="#7D6FE7" opacity="1.000000" stroke="none" 
	d="
M111.625000,1.000000 
	C110.771866,3.061473 109.867989,5.434873 108.247742,7.119140 
	C104.928101,10.569966 101.224091,13.651023 97.339218,16.608990 
	C96.999870,15.888982 96.999634,15.444310 96.999649,14.749813 
	C96.999901,14.499988 97.000305,14.000328 97.338577,13.942223 
	C99.451332,11.922866 101.225822,9.961614 103.139397,7.746922 
	C103.852425,6.995785 104.426361,6.498087 105.346695,5.938363 
	C106.795387,4.250890 107.897690,2.625444 109.000000,0.999999 
	C109.750000,1.000000 110.500000,1.000000 111.625000,1.000000 
z"/>
<path fill="#511DF1" opacity="1.000000" stroke="none" 
	d="
M10.338703,16.941364 
	C13.092893,13.073714 16.194897,9.154793 19.274389,5.218261 
	C20.176722,4.064804 21.015089,2.861306 21.941387,1.340372 
	C22.750000,1.000000 23.500000,1.000000 24.625000,1.000000 
	C24.797108,1.948062 24.916508,3.221223 24.340170,3.792586 
	C19.861668,8.232420 15.249060,12.536980 10.338703,16.941364 
z"/>
<path fill="#A1B1DF" opacity="1.000000" stroke="none" 
	d="
M121.000000,67.600006 
	C119.283913,69.083519 117.453003,70.023819 115.879616,71.285316 
	C113.710930,73.024101 111.736725,75.005447 109.399101,76.599266 
	C110.412552,73.877106 111.706123,71.438568 112.999817,68.750023 
	C112.999969,68.333344 112.999985,68.166672 113.309860,67.852493 
	C116.079819,66.469994 118.539909,65.235001 121.000000,64.000000 
	C121.000000,65.066673 121.000000,66.133339 121.000000,67.600006 
z"/>
<path fill="#BADEDB" opacity="1.000000" stroke="none" 
	d="
M113.494736,121.000000 
	C113.986061,117.030647 116.094025,114.084747 120.636307,113.013870 
	C121.000000,115.582458 121.000000,118.164917 121.000000,121.000000 
	C118.666077,121.000000 116.327774,121.000000 113.494736,121.000000 
z"/>
<path fill="#5A2AEE" opacity="1.000000" stroke="none" 
	d="
M40.571537,1.000000 
	C37.559368,4.628086 34.118732,8.256170 30.339073,11.608855 
	C29.999828,10.888639 29.999609,10.443824 30.217026,9.740583 
	C31.956440,6.654773 33.478218,3.827386 35.000000,1.000000 
	C36.714359,1.000000 38.428715,1.000000 40.571537,1.000000 
z"/>
<path fill="#9EACE1" opacity="1.000000" stroke="none" 
	d="
M69.999390,112.000000 
	C67.705566,114.773369 65.411736,117.546730 63.058952,120.660049 
	C61.611111,121.000000 60.222221,121.000000 58.416668,121.000000 
	C60.474232,118.109825 62.948456,115.219635 66.111404,112.164726 
	C67.866539,112.000000 68.932968,112.000000 69.999390,112.000000 
z"/>
<path fill="#5929EE" opacity="1.000000" stroke="none" 
	d="
M1.000000,34.428463 
	C3.438584,32.706131 5.877168,31.412262 8.700930,30.374073 
	C9.390498,31.419401 9.694889,32.209053 9.999279,32.998703 
	C7.226849,35.293060 4.454418,37.587418 1.340993,39.940887 
	C1.000000,38.285641 1.000000,36.571285 1.000000,34.428463 
z"/>
<path fill="#5624F0" opacity="1.000000" stroke="none" 
	d="
M34.571537,1.000000 
	C33.478218,3.827386 31.956440,6.654773 29.842140,9.740774 
	C28.499823,9.999491 27.750025,9.999591 27.000229,9.999692 
	C27.237844,8.877728 27.475460,7.755762 27.856152,6.316695 
	C28.331594,4.580367 28.663967,3.161140 28.998169,1.370956 
	C30.714357,1.000000 32.428715,1.000000 34.571537,1.000000 
z"/>
<path fill="#6D50EC" opacity="1.000000" stroke="none" 
	d="
M68.000610,9.000813 
	C68.000610,9.000813 68.500000,9.000140 69.107193,8.986476 
	C70.809593,7.981938 71.904800,6.991065 73.354584,5.928946 
	C74.472778,4.238467 75.236389,2.619233 76.000000,1.000000 
	C77.066673,1.000000 78.133339,1.000000 79.600006,1.000000 
	C78.737816,7.350789 73.210182,9.639112 68.342148,12.540758 
	C68.000336,11.133735 68.000473,10.067274 68.000610,9.000813 
z"/>
<path fill="#99A2E2" opacity="1.000000" stroke="none" 
	d="
M117.000305,54.000763 
	C115.166023,55.852932 113.331741,57.705097 110.915390,59.778671 
	C109.888275,59.999798 109.443222,59.999516 108.998169,59.999237 
	C112.756760,56.008636 116.515350,52.018040 120.636971,48.013721 
	C121.000000,48.444447 121.000000,48.888889 120.664200,49.724239 
	C119.219040,51.410351 118.109673,52.705559 117.000305,54.000763 
z"/>
<path fill="#6644EC" opacity="1.000000" stroke="none" 
	d="
M68.550018,1.000000 
	C67.497215,3.187466 65.994438,5.374933 63.845776,7.781089 
	C62.133495,8.000102 61.067093,8.000424 60.000343,8.000374 
	C60.000000,8.000000 59.999847,7.999790 59.999847,7.999790 
	C60.476429,6.485817 60.953011,4.971844 61.215839,3.229357 
	C60.747677,2.502567 60.493267,2.004291 60.119431,1.253007 
	C62.700016,1.000000 65.400032,1.000000 68.550018,1.000000 
z"/>
<path fill="#9DACE0" opacity="1.000000" stroke="none" 
	d="
M121.000000,63.571537 
	C118.539909,65.235001 116.079819,66.469994 113.309799,67.518967 
	C112.999626,66.888222 112.999374,66.443504 112.999123,65.998779 
	C115.440208,63.371273 117.881302,60.743771 120.661194,58.058132 
	C121.000000,59.714359 121.000000,61.428715 121.000000,63.571537 
z"/>
<path fill="#7966EA" opacity="1.000000" stroke="none" 
	d="
M8.631414,97.014099 
	C8.760983,101.599777 5.253344,102.792267 1.366214,103.985458 
	C1.000000,102.933327 1.000000,101.866661 1.000000,100.399994 
	C3.421222,99.009605 5.842443,98.019203 8.631414,97.014099 
z"/>
<path fill="#8B88E5" opacity="1.000000" stroke="none" 
	d="
M113.348854,27.944977 
	C115.425674,25.676098 117.850441,23.351755 120.637604,21.013706 
	C121.000000,21.750000 121.000000,22.500000 121.000000,23.625000 
	C118.565598,25.296503 116.131195,26.593008 113.348854,27.944977 
z"/>
<path fill="#511DF1" opacity="1.000000" stroke="none" 
	d="
M1.000000,22.399996 
	C2.759421,21.342291 4.518841,20.684584 6.638894,20.013248 
	C5.224047,21.961267 3.448568,23.922915 1.336545,25.942282 
	C1.000000,24.933331 1.000000,23.866661 1.000000,22.399996 
z"/>
<path fill="#6A4CEC" opacity="1.000000" stroke="none" 
	d="
M75.625000,1.000000 
	C75.236389,2.619233 74.472778,4.238467 73.021210,5.928856 
	C71.888725,5.999879 71.444206,5.999746 70.999695,5.999613 
	C71.628510,4.557386 72.257324,3.115159 72.943069,1.336466 
	C73.750000,1.000000 74.500000,1.000000 75.625000,1.000000 
z"/>
<path fill="#7C6CE8" opacity="1.000000" stroke="none" 
	d="
M108.600006,0.999999 
	C107.897690,2.625444 106.795387,4.250890 105.346542,5.604896 
	C104.999794,4.888838 104.999588,4.444222 104.999390,3.999605 
	C104.999634,3.249704 104.999886,2.499803 105.000061,1.374951 
	C106.066673,1.000000 107.133339,1.000000 108.600006,0.999999 
z"/>
<path fill="#5C32EE" opacity="1.000000" stroke="none" 
	d="
M1.000000,45.375000 
	C2.442237,44.371246 3.884474,43.742489 5.663147,43.056770 
	C4.558055,44.627922 3.116526,46.256046 1.337499,47.942085 
	C1.000000,47.250000 1.000000,46.500000 1.000000,45.375000 
z"/>
<path fill="#9AA2E2" opacity="1.000000" stroke="none" 
	d="
M117.400269,54.000610 
	C118.109673,52.705559 119.219040,51.410351 120.664200,50.057571 
	C121.000000,51.066669 121.000000,52.133339 121.000000,53.600006 
	C119.933411,54.000153 118.866814,54.000305 117.400269,54.000610 
z"/>
<path fill="#5C32EE" opacity="1.000000" stroke="none" 
	d="
M44.324017,4.919533 
	C44.298771,3.893694 44.597698,2.787634 44.948311,1.340787 
	C45.444447,1.000000 45.888889,1.000000 46.666668,1.000000 
	C46.216061,2.279770 45.432125,3.559541 44.324017,4.919533 
z"/>
<path fill="#9AA2E2" opacity="1.000000" stroke="none" 
	d="
M51.375000,121.000000 
	C51.779980,120.038391 52.559959,119.076782 53.669819,118.057587 
	C53.999783,118.750000 53.999874,119.500000 53.999985,120.625000 
	C53.250000,121.000000 52.500000,121.000000 51.375000,121.000000 
z"/>
<path fill="#6746EC" opacity="1.000000" stroke="none" 
	d="
M1.000000,67.375000 
	C1.750045,67.000122 2.500089,67.000237 3.625160,67.000633 
	C3.220042,67.962219 2.439896,68.923523 1.329876,69.942413 
	C1.000000,69.250000 1.000000,68.500000 1.000000,67.375000 
z"/>
<path fill="#8F92E4" opacity="1.000000" stroke="none" 
	d="
M33.712749,117.180389 
	C33.762432,118.122215 33.524559,119.244125 33.143341,120.683014 
	C33.000000,121.000000 32.500000,121.000000 32.250000,121.000000 
	C32.475060,119.786819 32.950127,118.573639 33.712749,117.180389 
z"/>
<path fill="#9398E3" opacity="1.000000" stroke="none" 
	d="
M71.351578,87.944298 
	C70.556198,88.000389 70.111481,88.000229 69.415817,87.672989 
	C71.110123,84.230919 73.055367,81.115929 75.348175,77.944672 
	C78.130394,76.258629 80.565056,74.628853 83.340958,72.939423 
	C85.735611,70.679062 87.587433,68.222878 89.923058,66.379784 
	C91.189651,65.380287 93.280350,65.425117 94.999306,64.998871 
	C88.539604,71.941032 82.123032,78.924400 75.573051,85.780304 
	C74.606415,86.792084 73.008224,87.200485 71.351578,87.944298 
z"/>
<path fill="#9AA2E2" opacity="1.000000" stroke="none" 
	d="
M59.364830,111.985550 
	C63.293560,107.357040 67.631462,102.753326 71.856606,98.048370 
	C73.342422,96.393829 74.551895,94.491135 75.943771,92.351028 
	C77.609909,90.546059 79.219810,89.091812 81.217117,87.248154 
	C82.069580,86.239136 82.534637,85.619530 82.999695,84.999924 
	C83.464905,84.380203 83.930115,83.760475 85.038300,83.018631 
	C86.787804,82.597679 87.894333,82.298836 89.000862,82.000000 
	C87.161812,84.440590 85.452644,86.994362 83.450066,89.292450 
	C81.070831,92.022774 78.534851,94.634781 75.897011,97.117661 
	C70.568565,102.133080 65.125443,107.026657 59.364830,111.985550 
z"/>
<path fill="#99A2E2" opacity="1.000000" stroke="none" 
	d="
M89.139893,81.746674 
	C87.894333,82.298836 86.787804,82.597679 85.340332,82.948013 
	C86.831696,80.739067 88.480087,78.293617 90.531815,76.253876 
	C96.035706,70.782135 101.712227,65.484024 107.603867,60.409294 
	C106.551926,62.491039 105.342484,64.393768 103.856667,66.048309 
	C99.631477,70.753281 95.293549,75.357025 91.000000,80.000610 
	C90.426315,80.498192 89.852623,80.995773 89.139893,81.746674 
z"/>
<path fill="#9296E4" opacity="1.000000" stroke="none" 
	d="
M95.322792,64.910622 
	C93.280350,65.425117 91.189651,65.380287 89.923058,66.379784 
	C87.587433,68.222878 85.735611,70.679062 83.397041,72.589142 
	C84.741058,69.199188 86.370224,66.099854 87.999695,63.000263 
	C88.000000,63.000000 88.000565,62.999390 88.000565,62.999390 
	C90.914093,61.139961 93.937386,59.428265 96.704826,57.372204 
	C98.749504,55.853123 100.460739,53.885223 102.660263,52.058800 
	C101.037224,55.101475 99.074448,58.202644 97.056885,61.652519 
	C96.550163,62.941605 96.098221,63.881989 95.322792,64.910622 
z"/>
<path fill="#9AA2E2" opacity="1.000000" stroke="none" 
	d="
M91.364792,79.985565 
	C95.293549,75.357025 99.631477,70.753281 103.856667,66.048309 
	C105.342484,64.393768 106.551926,62.491039 107.943779,60.350895 
	C108.000000,60.000153 108.499107,59.999519 108.748642,59.999378 
	C109.443222,59.999516 109.888275,59.999798 110.667122,60.000267 
	C106.602783,68.611916 99.300697,74.421028 91.364792,79.985565 
z"/>
<path fill="#99A2E2" opacity="1.000000" stroke="none" 
	d="
M82.697701,85.070496 
	C82.534637,85.619530 82.069580,86.239136 81.302567,86.929337 
	C81.465645,86.380318 81.930672,85.760689 82.697701,85.070496 
z"/>
<path fill="#FEFBFE" opacity="1.000000" stroke="none" 
	d="
M48.348015,65.014565 
	C46.970356,63.338673 45.887783,61.825115 44.531021,60.189674 
	C44.256832,60.067783 44.040150,60.020378 43.999111,59.790894 
	C43.584286,58.378357 43.210499,57.195309 42.903072,55.571518 
	C42.985958,53.068756 43.002480,51.006733 43.043159,48.735405 
	C43.358189,48.094589 43.649063,47.663086 44.291325,47.019897 
	C46.710484,45.645863 48.778255,44.483509 50.836594,43.680946 
	C50.217995,45.027332 49.608826,46.013927 48.770218,47.263611 
	C44.460373,54.771950 48.275223,60.002384 52.999992,65.425621 
	C52.984108,67.276321 52.968227,68.702011 52.952343,70.127701 
	C51.515930,68.477440 50.079517,66.827171 48.348015,65.014565 
z"/>
<path fill="#FCFCFD" opacity="1.000000" stroke="none" 
	d="
M52.983635,70.340363 
	C52.968227,68.702011 52.984108,67.276321 53.377174,65.429993 
	C54.963936,65.832993 56.347115,66.487885 57.346462,67.515900 
	C59.342449,69.569153 61.127972,71.827011 62.707878,74.238052 
	C60.904678,74.666992 59.394012,74.858269 57.883343,75.049538 
	C57.883343,75.049538 57.421700,75.063087 56.912498,74.959969 
	C55.303680,73.562408 54.204060,72.267967 53.104435,70.973526 
	C53.104435,70.973526 53.014923,70.553032 52.983635,70.340363 
z"/>
<path fill="#847DE9" opacity="1.000000" stroke="none" 
	d="
M52.787415,71.048676 
	C54.204060,72.267967 55.303680,73.562408 56.689064,75.018280 
	C56.982861,75.884377 56.990898,76.589035 56.999161,77.646057 
	C54.890846,78.939476 52.782307,79.880554 50.337036,80.911118 
	C49.695717,80.524902 49.391129,80.049187 49.043617,79.287048 
	C49.000690,79.000610 49.000000,79.000000 49.264191,78.950150 
	C49.685635,78.266563 49.842896,77.632835 50.000153,76.999100 
	C50.000629,76.249733 50.001106,75.500374 50.002186,74.376358 
	C50.825325,73.042419 51.647861,72.083115 52.787415,71.048676 
z"/>
<path fill="#9EABE0" opacity="1.000000" stroke="none" 
	d="
M112.660339,66.057251 
	C112.999374,66.443504 112.999626,66.888222 112.999939,67.666473 
	C112.999985,68.166672 112.999969,68.333344 112.659416,68.809746 
	C108.546127,73.079750 104.773369,77.040024 100.911880,81.324173 
	C99.548561,83.098549 98.273979,84.549057 96.663666,86.057182 
	C95.218735,87.409798 94.109520,88.704803 92.881248,90.252785 
	C92.507919,91.003639 92.253654,91.501518 91.661957,92.057404 
	C89.882706,93.743408 88.440895,95.371399 86.749329,96.999557 
	C86.499573,96.999733 86.000053,97.000305 85.698013,97.070763 
	C84.930756,97.760712 84.465530,98.380203 83.867111,99.197968 
	C83.528320,99.645172 83.283585,99.846519 82.999695,100.000267 
	C78.706207,103.773376 74.412720,107.546486 70.059311,111.659790 
	C68.932968,112.000000 67.866539,112.000000 66.400208,112.000000 
	C71.900261,106.237534 77.893303,100.566696 83.677879,94.690643 
	C91.890045,86.348610 99.925987,77.833305 108.097427,69.450722 
	C109.339149,68.176918 110.905411,67.219482 112.660339,66.057251 
z"/>
<path fill="#6644EC" opacity="1.000000" stroke="none" 
	d="
M34.999695,36.999542 
	C33.873638,37.952232 32.747581,38.904919 30.936005,39.928917 
	C29.500555,40.000401 28.750626,40.000580 28.000696,40.000763 
	C28.000696,40.000763 28.000000,40.000000 27.999920,39.999924 
	C38.440605,29.371948 48.881367,18.744047 59.660988,8.057970 
	C59.999847,7.999790 60.000000,8.000000 59.942036,8.339165 
	C55.972919,12.902027 51.943447,17.024250 48.198597,21.390577 
	C46.210747,23.708321 44.716667,26.449554 42.749886,28.999847 
	C42.500080,29.000078 42.000458,29.000519 41.660248,29.059090 
	C39.213257,31.744955 37.106476,34.372250 34.999695,36.999542 
z"/>
<path fill="#5C32EE" opacity="1.000000" stroke="none" 
	d="
M14.348866,33.944752 
	C19.474426,28.443256 24.948524,22.886209 30.711311,17.164619 
	C30.371853,18.458166 30.115271,20.315704 29.051367,21.305338 
	C24.394392,25.637218 19.503456,29.717579 14.348866,33.944752 
z"/>
<path fill="#5C32EE" opacity="1.000000" stroke="none" 
	d="
M9.337392,39.941799 
	C10.441498,38.371559 11.883138,36.743580 13.662247,35.057648 
	C12.558118,36.627815 11.116522,38.255936 9.337392,39.941799 
z"/>
<path fill="#5C32EE" opacity="1.000000" stroke="none" 
	d="
M36.323753,12.919810 
	C37.107559,11.374337 38.215271,9.748911 39.661446,8.061989 
	C38.882492,9.613616 37.765076,11.226737 36.323753,12.919810 
z"/>
<path fill="#5C32EE" opacity="1.000000" stroke="none" 
	d="
M40.341316,7.984101 
	C40.791275,7.364563 41.582092,6.729170 42.686378,6.046912 
	C42.227291,6.656114 41.454735,7.312181 40.341316,7.984101 
z"/>
<path fill="#5C32EE" opacity="1.000000" stroke="none" 
	d="
M32.340916,15.984081 
	C32.790920,15.364487 33.581841,14.729050 34.686226,14.046699 
	C34.227074,14.655936 33.454453,15.312087 32.340916,15.984081 
z"/>
<path fill="#847DE5" opacity="1.000000" stroke="none" 
	d="
M49.788876,77.196274 
	C49.842896,77.632835 49.685635,78.266563 49.264496,78.950455 
	C49.192940,78.464890 49.385269,77.929161 49.788876,77.196274 
z"/>
<path fill="#7967EA" opacity="1.000000" stroke="none" 
	d="
M41.767303,64.800835 
	C36.561630,70.291847 31.123205,75.586258 25.341896,80.939880 
	C26.065161,76.441315 36.985500,65.613884 41.767303,64.800835 
z"/>
<path fill="#7867E9" opacity="1.000000" stroke="none" 
	d="
M18.000763,89.000610 
	C15.229249,91.627281 12.457737,94.253960 9.342886,96.940170 
	C11.128082,94.430405 13.256618,91.861115 16.025909,89.145828 
	C17.111364,89.000099 17.556063,89.000351 18.000763,89.000610 
z"/>
<path fill="#735CEA" opacity="1.000000" stroke="none" 
	d="
M41.999996,58.997299 
	C40.610718,58.998230 39.221443,58.999165 37.416206,59.000168 
	C37.000244,59.000244 37.000000,59.000000 37.062904,58.628265 
	C38.083912,55.838539 39.042015,53.420547 40.324791,51.001484 
	C41.082363,50.998878 41.515270,50.997341 41.961685,51.412971 
	C41.999249,53.221020 42.023304,54.611908 42.037750,56.377075 
	C42.018757,57.500000 42.009377,58.248650 41.999996,58.997299 
z"/>
<path fill="#7965EA" opacity="1.000000" stroke="none" 
	d="
M18.326895,88.918152 
	C17.556063,89.000351 17.111364,89.000099 16.333141,88.999619 
	C18.106182,86.372169 20.212744,83.744957 22.659683,81.392143 
	C23.000141,82.111115 23.000223,82.555679 23.000307,83.000244 
	C21.551214,84.945396 20.102121,86.890549 18.326895,88.918152 
z"/>
<path fill="#6F5DC9" opacity="1.000000" stroke="none" 
	d="
M42.263092,59.263840 
	C42.009377,58.248650 42.018757,57.500000 42.234833,56.378952 
	C42.441521,56.006550 42.836712,56.012260 42.836712,56.012260 
	C43.210499,57.195309 43.584286,58.378357 43.916672,59.865074 
	C43.425579,59.955956 42.975883,59.743164 42.263092,59.263840 
z"/>
<path fill="#7967EA" opacity="1.000000" stroke="none" 
	d="
M23.302376,82.929611 
	C23.000223,82.555679 23.000141,82.111115 23.000029,81.333122 
	C23.444242,80.999481 23.888487,80.999268 24.665895,80.999069 
	C24.534189,81.619057 24.069317,82.239021 23.302376,82.929611 
z"/>
<path fill="#7159E5" opacity="1.000000" stroke="none" 
	d="
M40.000122,51.002556 
	C39.042015,53.420547 38.083912,55.838539 37.062477,58.627808 
	C36.248901,58.999165 35.498653,58.999241 34.373215,58.998817 
	C34.291584,57.570988 34.585144,56.143650 34.937332,53.973740 
	C35.330112,51.819115 35.664261,50.407070 36.324570,49.044147 
	C37.767185,49.729702 38.883652,50.366131 40.000122,51.002556 
z"/>
<path fill="#A3B5DF" opacity="1.000000" stroke="none" 
	d="
M105.001221,82.000305 
	C105.750984,82.000198 106.500755,82.000099 107.625412,82.000000 
	C107.220222,82.961662 106.440140,83.923309 105.330177,84.942635 
	C105.000305,85.000305 105.000000,85.000000 104.999542,84.624496 
	C104.999794,83.499428 105.000504,82.749870 105.001221,82.000305 
z"/>
<path fill="#7867DA" opacity="1.000000" stroke="none" 
	d="
M61.669601,41.001945 
	C62.749062,40.993176 63.498871,40.996998 64.624954,41.251625 
	C65.000954,41.669338 65.000664,41.836254 65.002014,42.260761 
	C65.003853,42.690083 65.004051,42.861813 65.022522,43.290218 
	C65.055557,43.717819 65.070312,43.888737 64.928970,44.342262 
	C62.845268,44.325832 60.917667,44.026787 58.992981,43.438423 
	C58.996788,42.762897 58.997677,42.376694 58.998569,41.990486 
	C59.779030,41.665169 60.559490,41.339851 61.669601,41.001945 
z"/>
<path fill="#7261C7" opacity="1.000000" stroke="none" 
	d="
M58.623657,41.992920 
	C58.997677,42.376694 58.996788,42.762897 58.680908,43.393063 
	C58.190056,43.521839 58.014183,43.406658 57.713665,43.217514 
	C57.412540,43.056675 57.226349,43.004307 56.754890,42.982811 
	C56.304638,42.922287 56.129948,42.865395 55.955254,42.808502 
	C55.955254,42.808502 55.987762,42.399441 55.992706,42.193665 
	C56.748016,41.990379 57.498379,41.992867 58.623657,41.992920 
z"/>
<path fill="#FFFEFE" opacity="1.000000" stroke="none" 
	d="
M63.000408,74.000374 
	C61.127972,71.827011 59.342449,69.569153 57.346462,67.515900 
	C56.347115,66.487885 54.963936,65.832993 53.377178,65.004974 
	C48.275223,60.002384 44.460373,54.771950 49.099339,47.318684 
	C52.438560,47.073692 55.219227,47.036716 58.401917,47.019547 
	C61.567528,47.087254 64.386955,47.500992 67.080475,47.089855 
	C70.397789,46.583508 73.801865,43.463436 76.472382,48.357513 
	C76.692795,48.761440 78.848671,48.109253 80.105263,47.947773 
	C80.425438,48.350910 80.745613,48.754044 81.061615,49.885811 
	C81.023804,52.722969 80.990158,54.831486 80.560562,56.962566 
	C77.875359,57.977222 73.638672,58.915344 73.609436,59.970074 
	C73.402679,67.430191 65.603455,68.712639 63.000408,74.000374 
z"/>
<path fill="#FDFCFE" opacity="1.000000" stroke="none" 
	d="
M80.067703,47.640358 
	C78.848671,48.109253 76.692795,48.761440 76.472382,48.357513 
	C73.801865,43.463436 70.397789,46.583508 67.080475,47.089855 
	C64.386955,47.500992 61.567528,47.087254 58.164211,46.791233 
	C56.683163,45.408371 55.841843,44.273621 55.000523,43.138874 
	C55.158997,43.081375 55.317467,43.023872 55.715599,42.887436 
	C56.129948,42.865395 56.304638,42.922287 56.856018,43.109039 
	C57.232708,43.238907 57.526466,43.369789 57.526466,43.369789 
	C57.526466,43.369789 57.838314,43.291481 57.838314,43.291481 
	C58.014183,43.406658 58.190056,43.521839 58.677994,43.682381 
	C60.917667,44.026787 62.845268,44.325832 65.133583,44.298027 
	C65.494293,43.971180 65.868927,43.781246 66.192764,43.738022 
	C67.332741,43.419220 68.148895,43.143642 69.364838,42.923752 
	C70.569267,42.903614 71.373901,42.827789 72.523018,42.813744 
	C73.561569,42.842957 74.255630,42.810387 75.183640,42.874840 
	C75.581566,43.012192 75.745529,43.052521 75.909485,43.092846 
	C77.066711,44.002235 78.223946,44.911625 79.673111,45.958511 
	C79.986748,46.508320 80.008446,46.920631 80.067703,47.640358 
z"/>
<path fill="#FBFDFE" opacity="1.000000" stroke="none" 
	d="
M80.956512,56.940006 
	C80.990158,54.831486 81.023804,52.722969 81.085007,50.157944 
	C81.518623,49.804478 81.924683,49.907516 82.637001,50.080425 
	C82.943268,50.150299 83.016670,50.578224 83.024796,51.196709 
	C82.983467,53.199871 82.933998,54.584545 82.643341,56.070747 
	C81.986305,56.483040 81.570457,56.793797 81.104187,57.064491 
	C81.053772,57.024426 80.956512,56.940006 80.956512,56.940006 
z"/>
<path fill="#6E53EB" opacity="1.000000" stroke="none" 
	d="
M50.846027,43.321152 
	C48.778255,44.483509 46.710484,45.645863 44.276981,46.568115 
	C43.607075,45.218266 43.302898,44.108528 43.012653,42.637310 
	C44.350597,39.851166 45.674614,37.426498 47.332024,35.001160 
	C48.109882,34.999508 48.554356,34.998535 49.373802,34.997971 
	C50.498676,34.998363 51.248573,34.998344 51.998474,34.998322 
	C51.998474,34.998322 52.000000,35.000000 52.000435,35.000526 
	C51.983280,37.336411 51.965691,39.671768 51.774471,42.465225 
	C51.308403,42.978477 51.056801,43.111084 50.846027,43.321152 
z"/>
<path fill="#FDFBFE" opacity="1.000000" stroke="none" 
	d="
M50.836594,43.680943 
	C51.056801,43.111084 51.308403,42.978477 51.793411,42.825172 
	C52.745224,42.797153 53.504463,42.867287 54.632114,43.038147 
	C55.841843,44.273621 56.683163,45.408371 57.762188,46.771431 
	C55.219227,47.036716 52.438560,47.073692 49.328773,47.055595 
	C49.608826,46.013927 50.217995,45.027332 50.836594,43.680943 
z"/>
<path fill="#572AEE" opacity="1.000000" stroke="none" 
	d="
M26.823399,10.287407 
	C27.750025,9.999591 28.499823,9.999491 29.624504,9.999199 
	C29.999609,10.443824 29.999828,10.888639 30.000210,11.667070 
	C27.160818,15.108116 24.357874,18.250015 21.472439,21.314238 
	C17.877031,25.132425 14.213589,28.886549 10.289402,32.833519 
	C9.694889,32.209053 9.390498,31.419401 9.042845,30.314499 
	C14.881911,23.524540 20.764242,17.049831 26.823399,10.287407 
z"/>
<path fill="#6C4FE8" opacity="1.000000" stroke="none" 
	d="
M46.998627,35.001831 
	C45.674614,37.426498 44.350597,39.851166 42.641808,42.641819 
	C40.171204,44.005787 38.085373,45.003765 35.749699,46.001152 
	C35.499855,46.000561 35.000164,45.999088 35.000164,45.999088 
	C34.999855,45.248886 34.999542,44.498684 34.998627,43.373325 
	C36.627045,40.558620 38.256069,38.119072 39.942547,35.339760 
	C40.000000,35.000000 40.001526,35.001678 40.251320,35.001587 
	C40.501114,35.001492 41.000740,35.000935 41.400635,35.000786 
	C42.866924,34.999916 43.933315,34.999195 45.332870,34.998981 
	C46.110233,35.000271 46.554428,35.001049 46.998627,35.001831 
z"/>
<path fill="#6E51EE" opacity="1.000000" stroke="none" 
	d="
M34.709351,46.166809 
	C35.000164,45.999088 35.499855,46.000561 35.749832,46.375336 
	C35.999344,47.498417 35.998878,48.246719 35.998413,48.995022 
	C35.664261,50.407070 35.330112,51.819115 34.994133,53.612469 
	C34.992302,53.993774 34.496315,53.996582 34.248318,53.997139 
	C33.209141,53.363018 32.417965,52.728344 31.313393,52.046680 
	C32.139515,50.111305 33.279026,48.222919 34.709351,46.166809 
z"/>
<path fill="#7C70EA" opacity="1.000000" stroke="none" 
	d="
M76.096527,42.862137 
	C75.745529,43.052521 75.581566,43.012192 75.194763,42.477379 
	C74.980782,40.655388 74.989632,39.327881 75.248596,38.000000 
	C75.665466,37.999054 75.832214,37.998489 75.998970,37.997921 
	C76.624084,38.797939 77.249199,39.597958 77.937469,40.699448 
	C77.428261,41.544418 76.855919,42.087921 76.096527,42.862137 
z"/>
<path fill="#7D6FE7" opacity="1.000000" stroke="none" 
	d="
M96.000610,18.000534 
	C91.226776,22.961782 86.452942,27.923029 81.339661,32.567467 
	C81.000351,31.500572 81.000481,30.750492 81.336311,29.942757 
	C82.781441,28.590195 83.890877,27.295288 85.175964,25.718304 
	C86.567856,24.290920 87.784081,23.145613 89.338982,21.942200 
	C91.785309,20.589575 93.892960,19.295055 96.000610,18.000534 
z"/>
<path fill="#7A69EA" opacity="1.000000" stroke="none" 
	d="
M81.000610,30.000412 
	C81.000481,30.750492 81.000351,31.500572 81.000870,32.625717 
	C79.430176,34.467995 77.858826,35.935207 76.143219,37.700172 
	C75.832214,37.998489 75.665466,37.999054 74.958496,37.867851 
	C73.611572,37.489613 72.804871,37.243149 72.050308,36.656212 
	C72.401825,35.210640 72.701218,34.105549 73.343887,32.940475 
	C76.124367,31.586737 78.561569,30.292986 80.999245,29.249535 
	C81.000008,29.666693 81.000313,29.833551 81.000610,30.000412 
z"/>
<path fill="#7C6CE8" opacity="1.000000" stroke="none" 
	d="
M96.198799,17.867485 
	C93.892960,19.295055 91.785309,20.589575 89.397873,21.601818 
	C91.745193,19.212908 94.372292,17.106274 96.999390,14.999640 
	C96.999634,15.444310 96.999870,15.888982 97.000359,16.667171 
	C96.846992,17.284420 96.645782,17.529001 96.198799,17.867485 
z"/>
<path fill="#FBFDFE" opacity="1.000000" stroke="none" 
	d="
M62.707878,74.238052 
	C65.603455,68.712639 73.402679,67.430191 73.609436,59.970074 
	C73.638672,58.915344 77.875359,57.977222 80.560562,56.962566 
	C80.956512,56.940006 81.053772,57.024426 81.181396,57.347931 
	C80.186119,59.729980 79.063225,61.788528 77.711899,63.962299 
	C77.290443,64.350990 77.097435,64.624458 76.616356,65.061066 
	C75.163559,66.791634 73.998833,68.359062 72.544037,70.086174 
	C70.178925,72.606003 68.103897,74.966156 65.824577,77.330338 
	C65.348404,77.436600 65.140129,77.613823 64.595818,77.908096 
	C63.128410,78.035217 62.060658,78.120285 60.992901,78.205345 
	C60.052948,77.355286 59.112999,76.505226 58.028194,75.352356 
	C59.394012,74.858269 60.904678,74.666992 62.707878,74.238052 
z"/>
<path fill="#8D8CE4" opacity="1.000000" stroke="none" 
	d="
M60.994049,78.588425 
	C62.060658,78.120285 63.128410,78.035217 64.595367,78.305908 
	C63.710304,81.227013 62.689667,83.974258 61.076397,86.312637 
	C58.962212,89.377083 56.380322,92.118835 53.749786,94.999603 
	C53.499966,94.999809 53.000328,95.000305 52.659515,95.051834 
	C51.212673,95.402344 50.106640,95.701324 49.000610,96.000305 
	C50.198273,94.542488 51.294945,92.985298 52.612957,91.645912 
	C56.241062,87.958923 60.814247,84.929039 60.994049,78.588425 
z"/>
<path fill="#8E8FE4" opacity="1.000000" stroke="none" 
	d="
M49.000305,96.250076 
	C50.106640,95.701324 51.212673,95.402344 52.601913,95.387581 
	C51.590237,96.781296 50.295345,97.890800 49.000458,99.000305 
	C49.000271,98.555664 49.000084,98.111023 48.999641,97.332886 
	C48.999390,96.999390 49.000000,96.499847 49.000305,96.250076 
z"/>
<path fill="#9195E3" opacity="1.000000" stroke="none" 
	d="
M75.000610,78.000938 
	C73.055367,81.115929 71.110123,84.230919 69.082291,87.672951 
	C63.963795,92.869286 58.953777,97.765846 53.873898,102.588829 
	C52.590023,103.807785 51.083088,104.791809 49.339554,105.942101 
	C49.000458,106.000412 49.000000,106.000000 48.999802,105.624748 
	C48.999588,104.499565 48.999565,103.749626 48.999542,102.999695 
	C48.999542,102.999695 49.000000,102.500000 49.338833,102.192001 
	C51.785210,99.589432 53.892757,97.294868 56.243053,94.786133 
	C57.657040,93.714439 58.828274,92.856918 60.337082,91.941711 
	C62.116249,90.255905 63.557846,88.627769 64.999680,86.749802 
	C64.999924,86.499969 65.000305,86.000305 65.336044,85.942688 
	C66.781288,84.590210 67.890793,83.295341 69.000687,81.750931 
	C69.001060,81.501396 69.001984,81.002319 69.333969,80.942657 
	C71.443878,79.255737 73.221786,77.628479 74.999786,76.334503 
	C75.000122,77.112167 75.000366,77.556549 75.000610,78.000938 
z"/>
<path fill="#A1B1DF" opacity="1.000000" stroke="none" 
	d="
M105.000809,81.750183 
	C105.000504,82.749870 104.999794,83.499428 104.998779,84.623734 
	C102.410378,86.871399 99.817039,88.737122 97.236191,90.619980 
	C95.724007,91.723206 94.231758,92.853745 92.365265,93.652832 
	C91.999794,92.888916 91.999588,92.444153 91.999390,91.999390 
	C92.253654,91.501518 92.507919,91.003639 93.217010,90.195297 
	C94.781013,88.589745 95.890205,87.294655 96.999390,85.999565 
	C98.273979,84.549057 99.548561,83.098549 101.311768,81.324173 
	C102.866829,81.000137 103.933258,80.999969 104.999695,80.999809 
	C104.999924,81.166557 105.000160,81.333305 105.000809,81.750183 
z"/>
<path fill="#A1B1DF" opacity="1.000000" stroke="none" 
	d="
M86.000053,97.000305 
	C86.000053,97.000305 86.499573,96.999733 87.082970,96.999802 
	C88.111214,97.000122 88.556068,97.000366 89.000916,97.000610 
	C86.559921,99.628456 84.118912,102.256287 81.339127,104.942368 
	C81.628891,103.558144 82.257439,102.115685 82.942841,100.336746 
	C83.283585,99.846519 83.528320,99.645172 84.169098,99.127480 
	C85.069542,98.239250 85.534798,97.619774 86.000053,97.000305 
z"/>
<path fill="#A0B0E0" opacity="1.000000" stroke="none" 
	d="
M89.266609,96.845711 
	C88.556068,97.000366 88.111214,97.000122 87.332726,96.999634 
	C88.440895,95.371399 89.882706,93.743408 91.661957,92.057404 
	C91.999588,92.444153 91.999794,92.888916 92.000153,93.667267 
	C91.177643,94.897507 90.354973,95.794159 89.266609,96.845711 
z"/>
<path fill="#7867EA" opacity="1.000000" stroke="none" 
	d="
M80.998779,28.999237 
	C78.561569,30.292986 76.124367,31.586737 73.343552,32.690147 
	C72.999718,32.332924 72.999474,32.166042 72.999229,31.999157 
	C75.138351,29.775862 77.277473,27.552565 79.707840,25.164347 
	C80.443802,24.999645 80.888527,24.999865 81.666885,25.250248 
	C82.000648,25.667120 82.000778,25.833826 81.868576,26.290455 
	C81.490417,27.386663 81.244598,28.192951 80.998779,28.999237 
z"/>
<path fill="#7865E8" opacity="1.000000" stroke="none" 
	d="
M72.647568,32.056030 
	C72.999474,32.166042 72.999718,32.332924 73.000282,32.750130 
	C72.701218,34.105549 72.401825,35.210640 71.702400,36.666702 
	C70.202393,37.346043 69.102432,37.674412 67.712067,38.134132 
	C66.615059,38.510315 65.808441,38.755146 65.001831,38.999977 
	C65.245720,34.387539 69.181114,33.684769 72.647568,32.056030 
z"/>
<path fill="#7967EC" opacity="1.000000" stroke="none" 
	d="
M65.001251,39.333591 
	C65.808441,38.755146 66.615059,38.510315 67.711540,38.510475 
	C68.002419,39.508312 68.003418,40.261158 67.999680,41.257454 
	C67.994949,41.500904 67.980240,41.988007 67.607758,41.990891 
	C66.490311,41.996906 65.745346,42.000038 65.000381,42.003170 
	C65.000664,41.836254 65.000954,41.669338 64.999855,41.252075 
	C64.999207,40.556889 64.999939,40.112045 65.001251,39.333591 
z"/>
<path fill="#6746EC" opacity="1.000000" stroke="none" 
	d="
M27.942387,40.339561 
	C28.750626,40.000580 29.500555,40.000401 30.625471,40.000374 
	C29.419331,42.275753 28.107403,44.812084 26.203878,46.774605 
	C21.507093,51.616943 16.538908,56.196037 11.339799,60.940323 
	C12.716714,58.449612 14.210736,55.708344 16.198576,53.390606 
	C19.943424,49.024265 23.972916,44.902054 27.942387,40.339561 
z"/>
<path fill="#6746EC" opacity="1.000000" stroke="none" 
	d="
M35.336266,36.942749 
	C37.106476,34.372250 39.213257,31.744955 41.597385,29.408558 
	C41.250332,31.466864 40.625931,33.234272 40.001526,35.001678 
	C40.001526,35.001678 40.000000,35.000000 40.000832,35.000725 
	C38.558723,35.629616 37.115780,36.257786 35.336266,36.942749 
z"/>
<path fill="#6746EC" opacity="1.000000" stroke="none" 
	d="
M4.339065,66.942162 
	C5.775136,65.038879 7.549430,63.077549 9.662085,61.058334 
	C8.226058,62.961678 6.451673,64.922897 4.339065,66.942162 
z"/>
<path fill="#8B88E5" opacity="1.000000" stroke="none" 
	d="
M82.884537,55.969219 
	C82.933998,54.584545 82.983467,53.199871 83.091415,51.403328 
	C84.983093,50.194256 86.816284,49.397057 88.825043,48.300148 
	C93.281380,44.421719 97.525894,40.798416 101.854462,37.278461 
	C105.283180,34.490265 108.814972,31.828817 112.650040,29.055344 
	C108.336357,33.997482 103.637222,38.962048 99.023003,44.004318 
	C95.633347,47.708412 92.354927,51.514294 89.013168,55.636871 
	C88.999390,55.998932 89.000000,56.000000 88.564156,56.000023 
	C86.380386,55.989769 84.632454,55.979492 82.884537,55.969219 
z"/>
<path fill="#8E8DE6" opacity="1.000000" stroke="none" 
	d="
M82.643341,56.070747 
	C84.632454,55.979492 86.380386,55.989769 88.564156,55.999870 
	C89.000160,56.750168 89.000313,57.500645 89.000847,58.626396 
	C88.762978,60.122944 88.524727,61.244209 88.143524,62.682434 
	C88.000565,62.999390 88.000000,63.000000 87.687576,63.148392 
	C84.916672,64.864525 82.458183,66.432259 79.999573,67.667496 
	C79.999023,66.891655 79.998589,66.448311 79.865860,65.805008 
	C79.527649,65.354134 79.280563,65.154037 78.747803,65.002289 
	C78.503288,64.999817 78.014313,64.991714 78.001175,64.705208 
	C77.972137,64.228157 77.956238,64.037621 77.940331,63.847076 
	C79.063225,61.788528 80.186119,59.729980 81.231812,57.387993 
	C81.570457,56.793797 81.986305,56.483040 82.643341,56.070747 
z"/>
<path fill="#9296E4" opacity="1.000000" stroke="none" 
	d="
M109.662491,45.058079 
	C108.558411,46.628284 107.116829,48.256260 105.337769,49.942131 
	C106.441864,48.371967 107.883415,46.743908 109.662491,45.058079 
z"/>
<path fill="#6D50EC" opacity="1.000000" stroke="none" 
	d="
M52.013252,34.629593 
	C51.248573,34.998344 50.498676,34.998363 49.389656,34.626694 
	C49.687077,32.170132 50.343616,30.085257 51.178291,27.779026 
	C51.904366,27.038498 52.452301,26.519325 53.341003,25.948492 
	C54.787693,25.597761 55.893620,25.298691 56.999771,24.999809 
	C57.000000,25.000000 57.000305,25.000229 57.000305,25.000229 
	C55.342880,28.087107 53.685452,31.173986 52.013252,34.629593 
z"/>
<path fill="#6D50EC" opacity="1.000000" stroke="none" 
	d="
M60.001144,17.000999 
	C60.001144,17.001001 60.500572,17.000690 61.091110,16.948816 
	C62.787766,16.598011 63.893883,16.299082 65.000000,16.000153 
	C62.559834,18.961185 60.119663,21.922218 57.339901,24.941738 
	C57.000305,25.000229 57.000000,25.000000 56.999901,24.624908 
	C56.999920,23.500006 57.000038,22.750193 57.326653,21.909243 
	C58.435818,20.212402 59.218479,18.606701 60.001144,17.000999 
z"/>
<path fill="#6C4EEC" opacity="1.000000" stroke="none" 
	d="
M67.662071,9.062174 
	C68.000473,10.067274 68.000336,11.133735 68.000252,12.600133 
	C67.211250,13.304853 66.422188,13.609636 65.067154,13.957294 
	C64.333923,14.000060 64.166656,13.999950 63.999390,13.999841 
	C65.107437,12.374406 66.215485,10.748970 67.662071,9.062174 
z"/>
<path fill="#6A4CEC" opacity="1.000000" stroke="none" 
	d="
M63.669533,14.057441 
	C64.166656,13.999950 64.333923,14.000060 64.752121,14.000465 
	C65.002266,14.445066 65.001488,14.889371 65.000351,15.666912 
	C63.893883,16.299082 62.787766,16.598011 61.340824,16.948509 
	C61.779892,16.038399 62.559784,15.076720 63.669533,14.057441 
z"/>
<path fill="#6746EC" opacity="1.000000" stroke="none" 
	d="
M42.999695,28.999619 
	C44.716667,26.449554 46.210747,23.708321 48.198597,21.390577 
	C51.943447,17.024250 55.972919,12.902027 59.942383,8.339539 
	C61.067093,8.000424 62.133495,8.000102 63.599792,7.999745 
	C59.419834,12.746450 54.760979,17.420664 50.301441,22.277872 
	C48.662071,24.063429 47.493805,26.281517 45.805305,28.651184 
	C45.499954,29.000057 45.000355,29.000570 44.666912,29.000368 
	C43.888878,28.999983 43.444286,28.999800 42.999695,28.999619 
z"/>
<path fill="#6C4EEC" opacity="1.000000" stroke="none" 
	d="
M51.000153,28.000381 
	C50.343616,30.085257 49.687077,32.170132 49.014679,34.626282 
	C48.554356,34.998535 48.109882,34.999508 47.332020,35.001160 
	C46.554428,35.001049 46.110233,35.000271 45.390755,34.661491 
	C46.077003,32.549046 47.038528,30.774599 48.000057,29.000153 
	C48.153522,28.716234 48.354706,28.471556 49.135208,28.133129 
	C50.111256,28.000223 50.555706,28.000303 51.000153,28.000381 
z"/>
<path fill="#6A4CEC" opacity="1.000000" stroke="none" 
	d="
M47.666641,29.000063 
	C47.038528,30.774599 46.077003,32.549046 45.057594,34.660980 
	C43.933315,34.999195 42.866924,34.999916 41.564209,34.713196 
	C42.552040,32.617355 43.776196,30.808962 45.000355,29.000568 
	C45.000355,29.000570 45.499954,29.000057 45.749748,28.999723 
	C46.444103,28.999584 46.888668,28.999779 47.666641,29.000063 
z"/>
<path fill="#6A4CEC" opacity="1.000000" stroke="none" 
	d="
M59.663502,17.058523 
	C59.218479,18.606701 58.435818,20.212402 56.993244,21.909100 
	C55.888790,21.999935 55.444241,21.999777 54.999695,21.999619 
	C56.441750,20.371761 57.883804,18.743904 59.663502,17.058523 
z"/>
<path fill="#6C4EEC" opacity="1.000000" stroke="none" 
	d="
M54.697723,22.070358 
	C55.444241,21.999777 55.888790,21.999935 56.666744,22.000238 
	C57.000038,22.750193 56.999920,23.500006 56.999672,24.624718 
	C55.893620,25.298691 54.787693,25.597761 53.340889,25.615089 
	C52.999851,24.888811 52.999695,24.444273 52.999542,23.999737 
	C53.464947,23.380192 53.930351,22.760647 54.697723,22.070358 
z"/>
<path fill="#6A4CEC" opacity="1.000000" stroke="none" 
	d="
M52.663803,24.057346 
	C52.999695,24.444273 52.999851,24.888811 53.000122,25.666750 
	C52.452301,26.519325 51.904366,27.038498 51.178291,27.779026 
	C50.555706,28.000303 50.111256,28.000223 49.333481,28.000111 
	C50.109459,26.705034 51.218765,25.409994 52.663803,24.057346 
z"/>
<path fill="#6C4EEC" opacity="1.000000" stroke="none" 
	d="
M70.676315,6.088295 
	C71.444206,5.999746 71.888725,5.999879 72.666618,6.000102 
	C71.904800,6.991065 70.809593,7.981938 69.356888,8.986234 
	C69.450569,8.058764 69.901756,7.117871 70.676315,6.088295 
z"/>
<path fill="#7A69EA" opacity="1.000000" stroke="none" 
	d="
M82.000916,26.000534 
	C82.000778,25.833826 82.000648,25.667120 82.000412,25.250353 
	C84.892448,21.941488 87.669014,18.760363 90.723862,15.873742 
	C92.332375,14.353810 94.427025,13.348356 96.650970,12.388489 
	C96.999954,13.111031 97.000130,13.555679 97.000305,14.000328 
	C97.000305,14.000328 96.999901,14.499988 96.999649,14.749813 
	C94.372292,17.106274 91.745193,19.212908 89.059204,21.659924 
	C87.784081,23.145613 86.567856,24.290920 84.801025,25.718195 
	C83.500587,26.000286 82.750755,26.000410 82.000916,26.000534 
z"/>
<path fill="#7A69EA" opacity="1.000000" stroke="none" 
	d="
M104.657333,4.059149 
	C104.999588,4.444222 104.999794,4.888838 105.000153,5.666922 
	C104.426361,6.498087 103.852425,6.995785 102.801682,7.804525 
	C100.550117,9.077147 98.775360,10.038726 97.000610,11.000305 
	C99.438835,8.706435 101.877060,6.412563 104.657333,4.059149 
z"/>
<path fill="#7C6CE8" opacity="1.000000" stroke="none" 
	d="
M97.000305,11.250077 
	C98.775360,10.038726 100.550117,9.077147 102.662598,8.057964 
	C101.225822,9.961614 99.451332,11.922866 97.338577,13.942223 
	C97.000130,13.555679 96.999954,13.111031 96.999588,12.332886 
	C96.999390,11.999390 97.000000,11.499849 97.000305,11.250077 
z"/>
<path fill="#8F92E4" opacity="1.000000" stroke="none" 
	d="
M56.000305,95.000305 
	C53.892757,97.294868 51.785210,99.589432 49.339050,101.942154 
	C49.000252,101.555725 49.000072,101.111145 48.999718,100.333130 
	C48.999542,99.999695 49.000000,99.500000 49.000229,99.250153 
	C50.295345,97.890800 51.590237,96.781296 52.942726,95.336044 
	C53.000328,95.000305 53.499966,94.999809 54.083237,94.999802 
	C55.111107,94.999954 55.555706,95.000130 56.000305,95.000305 
z"/>
<path fill="#8F92E4" opacity="1.000000" stroke="none" 
	d="
M48.662079,103.057617 
	C48.999565,103.749626 48.999588,104.499565 48.999496,105.624443 
	C47.557133,106.628250 46.114876,107.257103 44.336082,107.942673 
	C45.441235,106.371445 46.882927,104.743500 48.662079,103.057617 
z"/>
<path fill="#8F92E4" opacity="1.000000" stroke="none" 
	d="
M40.697342,111.070091 
	C40.534187,111.619156 40.069069,112.238914 39.301838,112.929123 
	C39.464943,112.379967 39.930161,111.760376 40.697342,111.070091 
z"/>
<path fill="#A0AEE1" opacity="1.000000" stroke="none" 
	d="
M105.273483,80.836304 
	C103.933258,80.999969 102.866829,81.000137 101.400497,81.000305 
	C104.773369,77.040024 108.546127,73.079750 112.659286,69.059753 
	C111.706123,71.438568 110.412552,73.877106 109.059586,76.657516 
	C107.849213,78.223854 106.698250,79.448326 105.273483,80.836304 
z"/>
<path fill="#9093E4" opacity="1.000000" stroke="none" 
	d="
M79.999695,68.000000 
	C82.458183,66.432259 84.916672,64.864525 87.687271,63.148659 
	C86.370224,66.099854 84.741058,69.199188 83.055801,72.648796 
	C80.565056,74.628853 78.130394,76.258629 75.348175,77.944672 
	C75.000366,77.556549 75.000122,77.112167 75.297859,76.140747 
	C76.063843,74.073357 76.531845,72.532982 77.144196,70.729218 
	C77.859535,69.644997 78.430534,68.824181 79.251068,68.002541 
	C79.500595,68.001724 79.999695,68.000000 79.999695,68.000000 
z"/>
<path fill="#7054EC" opacity="1.000000" stroke="none" 
	d="
M36.324566,49.044147 
	C35.998878,48.246719 35.999344,47.498417 35.999676,46.375931 
	C38.085373,45.003765 40.171204,44.005787 42.627884,43.003296 
	C43.302898,44.108528 43.607075,45.218266 43.925594,46.779793 
	C43.649063,47.663086 43.358189,48.094589 42.825645,48.938797 
	C42.372044,49.899597 42.160107,50.447704 41.948174,50.995808 
	C41.515270,50.997341 41.082363,50.998878 40.324791,51.001484 
	C38.883652,50.366131 37.767185,49.729702 36.324566,49.044147 
z"/>
<path fill="#7967CA" opacity="1.000000" stroke="none" 
	d="
M41.961685,51.412971 
	C42.160107,50.447704 42.372044,49.899597 42.801491,49.148102 
	C43.002480,51.006733 42.985958,53.068756 42.903072,55.571518 
	C42.836712,56.012260 42.441521,56.006550 42.244438,56.004673 
	C42.023304,54.611908 41.999249,53.221020 41.961685,51.412971 
z"/>
<path fill="#A0B0E0" opacity="1.000000" stroke="none" 
	d="
M96.663666,86.057182 
	C95.890205,87.294655 94.781013,88.589745 93.336075,89.942322 
	C94.109520,88.704803 95.218735,87.409798 96.663666,86.057182 
z"/>
<path fill="#A0B0E0" opacity="1.000000" stroke="none" 
	d="
M85.698013,97.070763 
	C85.534798,97.619774 85.069542,98.239250 84.302292,98.929207 
	C84.465530,98.380203 84.930756,97.760712 85.698013,97.070763 
z"/>
<path fill="#6949EC" opacity="1.000000" stroke="none" 
	d="
M44.666912,29.000366 
	C43.776196,30.808962 42.552040,32.617355 41.164314,34.713341 
	C41.000740,35.000935 40.501114,35.001492 40.251320,35.001587 
	C40.625931,33.234272 41.250332,31.466864 41.937595,29.349987 
	C42.000458,29.000519 42.500080,29.000078 42.749886,28.999847 
	C43.444286,28.999800 43.888878,28.999983 44.666912,29.000366 
z"/>
<path fill="#796DCE" opacity="1.000000" stroke="none" 
	d="
M65.002014,42.260761 
	C65.745346,42.000038 66.490311,41.996906 67.882599,42.000473 
	C68.712936,42.015068 68.895950,42.022972 69.055511,42.240860 
	C69.032066,42.450840 68.965042,42.868065 68.965042,42.868065 
	C68.148895,43.143642 67.332741,43.419220 66.076080,43.584599 
	C65.453476,43.286869 65.243034,43.139915 65.004257,43.033539 
	C65.004051,42.861813 65.003853,42.690083 65.002014,42.260761 
z"/>
<path fill="#7967EC" opacity="1.000000" stroke="none" 
	d="
M65.022522,43.290218 
	C65.243034,43.139915 65.453476,43.286869 65.752251,43.627823 
	C65.868927,43.781246 65.494293,43.971180 65.289680,44.015415 
	C65.070312,43.888737 65.055557,43.717819 65.022522,43.290218 
z"/>
<path fill="#7867DA" opacity="1.000000" stroke="none" 
	d="
M57.713665,43.217514 
	C57.838314,43.291481 57.526466,43.369789 57.526466,43.369789 
	C57.526466,43.369789 57.232708,43.238907 57.131577,43.112675 
	C57.226349,43.004307 57.412540,43.056675 57.713665,43.217514 
z"/>
<path fill="#7A6AF0" opacity="1.000000" stroke="none" 
	d="
M68.004417,41.014008 
	C68.003418,40.261158 68.002419,39.508312 68.001938,38.379120 
	C69.102432,37.674412 70.202393,37.346043 71.650269,37.007183 
	C72.804871,37.243149 73.611572,37.489613 74.708374,37.868225 
	C74.989632,39.327881 74.980782,40.655388 74.960815,42.380356 
	C74.255630,42.810387 73.561569,42.842957 72.485352,42.605785 
	C72.103195,42.336048 72.004517,41.925591 71.732910,41.706844 
	C70.309006,41.330067 69.156708,41.172035 68.004417,41.014008 
z"/>
<path fill="#958FD1" opacity="1.000000" stroke="none" 
	d="
M72.004517,41.925591 
	C72.004517,41.925591 72.103195,42.336048 72.140862,42.544006 
	C71.373901,42.827789 70.569267,42.903614 69.364838,42.923752 
	C68.965042,42.868065 69.032066,42.450840 69.420059,42.234383 
	C70.540207,41.987148 71.272362,41.956371 72.004517,41.925591 
z"/>
<path fill="#7C6CE8" opacity="1.000000" stroke="none" 
	d="
M81.868576,26.290455 
	C82.750755,26.000410 83.500587,26.000286 84.625366,26.000271 
	C83.890877,27.295288 82.781441,28.590195 81.336311,29.942757 
	C81.000313,29.833551 81.000008,29.666693 80.999245,29.249535 
	C81.244598,28.192951 81.490417,27.386663 81.868576,26.290455 
z"/>
<path fill="#908EE8" opacity="1.000000" stroke="none" 
	d="
M76.999840,70.992615 
	C76.531845,72.532982 76.063843,74.073357 75.297768,75.807472 
	C73.221786,77.628479 71.443878,79.255737 69.078293,80.657150 
	C67.670029,79.396309 66.849449,78.361305 66.028862,77.326302 
	C68.103897,74.966156 70.178925,72.606003 72.792252,70.267273 
	C74.553642,70.523338 75.776741,70.757980 76.999840,70.992615 
z"/>
<path fill="#8E8FE4" opacity="1.000000" stroke="none" 
	d="
M65.824577,77.330338 
	C66.849449,78.361305 67.670029,79.396309 68.746300,80.716812 
	C69.001984,81.002319 69.001060,81.501396 68.664856,81.808334 
	C67.219193,83.410286 66.109749,84.705292 65.000305,86.000305 
	C65.000305,86.000305 64.999924,86.499969 64.662247,86.807785 
	C62.882877,88.743523 61.441193,90.371452 59.999508,91.999390 
	C58.828274,92.856918 57.657040,93.714439 56.243057,94.786133 
	C55.555706,95.000130 55.111107,94.999954 54.333054,94.999588 
	C56.380322,92.118835 58.962212,89.377083 61.076397,86.312637 
	C62.689667,83.974258 63.710304,81.227013 64.995026,78.263855 
	C65.140129,77.613823 65.348404,77.436600 65.824577,77.330338 
z"/>
<path fill="#8D8AE0" opacity="1.000000" stroke="none" 
	d="
M77.144196,70.729218 
	C75.776741,70.757980 74.553642,70.523338 73.082321,70.107590 
	C73.998833,68.359062 75.163559,66.791634 76.657684,65.104240 
	C76.987076,64.984283 77.070183,65.067482 77.068520,65.401855 
	C77.711746,66.491936 78.356636,67.247643 79.001526,68.003357 
	C78.430534,68.824181 77.859535,69.644997 77.144196,70.729218 
z"/>
<path fill="#8D8AE0" opacity="1.000000" stroke="none" 
	d="
M77.711899,63.962299 
	C77.956238,64.037621 77.972137,64.228157 77.764893,64.722168 
	C77.541748,65.025627 77.070183,65.067482 77.070183,65.067482 
	C77.070183,65.067482 76.987076,64.984283 76.945755,64.941101 
	C77.097435,64.624458 77.290443,64.350990 77.711899,63.962299 
z"/>
<path fill="#8F92E4" opacity="1.000000" stroke="none" 
	d="
M60.337082,91.941711 
	C61.441193,90.371452 62.882877,88.743523 64.662003,87.057617 
	C63.557846,88.627769 62.116249,90.255905 60.337082,91.941711 
z"/>
<path fill="#8F92E4" opacity="1.000000" stroke="none" 
	d="
M65.336044,85.942688 
	C66.109749,84.705292 67.219193,83.410286 68.664474,82.057877 
	C67.890793,83.295341 66.781288,84.590210 65.336044,85.942688 
z"/>
<path fill="#7C71D6" opacity="1.000000" stroke="none" 
	d="
M71.732910,41.706848 
	C71.272362,41.956371 70.540207,41.987148 69.443512,42.024399 
	C68.895950,42.022972 68.712936,42.015068 68.255081,41.997585 
	C67.980240,41.988007 67.994949,41.500904 67.999680,41.257454 
	C69.156708,41.172035 70.309006,41.330067 71.732910,41.706848 
z"/>
<path fill="#8C8CE4" opacity="1.000000" stroke="none" 
	d="
M77.068520,65.401855 
	C77.070183,65.067482 77.541748,65.025627 77.778030,65.008667 
	C78.014313,64.991714 78.503288,64.999817 78.882240,65.200356 
	C79.467987,65.649666 79.713646,65.851028 79.998161,66.004974 
	C79.998589,66.448311 79.999023,66.891655 79.999573,67.667496 
	C79.999695,68.000000 79.500595,68.001724 79.251060,68.002541 
	C78.356636,67.247643 77.711746,66.491936 77.068520,65.401855 
z"/>
<path fill="#908EE8" opacity="1.000000" stroke="none" 
	d="
M79.865860,65.805008 
	C79.713646,65.851028 79.467987,65.649666 79.126755,65.202835 
	C79.280563,65.154037 79.527649,65.354134 79.865860,65.805008 
z"/>
</svg>